<svg width="182" height="28" viewBox="0 0 182 28" fill="none" xmlns="http://www.w3.org/2000/svg">
<g id="Don&#226;&#128;&#153;t Worry">
<path id="Vector" d="M170.507 27.568C169.355 27.568 168.395 27.344 167.627 26.896C166.859 26.448 166.475 25.7866 166.475 24.912C166.475 24.208 166.805 23.6533 167.467 23.248C168.128 22.8426 168.907 22.6613 169.803 22.704C170.741 22.7466 171.467 22.704 171.979 22.576C172.512 22.448 172.917 22.2133 173.195 21.872C171.232 21.872 169.664 21.5946 168.491 21.04C167.317 20.464 166.464 19.5786 165.931 18.384C165.419 17.168 165.163 15.568 165.163 13.584C165.163 11.8773 165.419 10.5013 165.931 9.45596C166.464 8.38929 167.296 7.85596 168.427 7.85596C169.429 7.85596 170.165 8.14396 170.635 8.71996C171.125 9.27462 171.371 9.99996 171.371 10.896L171.339 12.304C171.317 12.5813 171.307 12.9866 171.307 13.52C171.307 14.544 171.435 15.3226 171.691 15.856C171.947 16.368 172.459 16.624 173.227 16.624C173.995 16.624 174.507 16.368 174.763 15.856C175.019 15.3226 175.147 14.5546 175.147 13.552C175.147 13.0186 175.136 12.6133 175.115 12.336L175.083 10.96C175.083 9.99996 175.317 9.24262 175.787 8.68796C176.277 8.13329 177.024 7.85596 178.027 7.85596C179.157 7.85596 179.989 8.38929 180.523 9.45596C181.056 10.5226 181.323 11.8986 181.323 13.584C181.323 16.1013 180.96 18.416 180.235 20.528C179.531 22.6186 178.368 24.3146 176.747 25.616C175.147 26.9173 173.067 27.568 170.507 27.568Z" fill="#8573C9"/>
<path id="Vector_2" d="M153.789 22.8319C152.424 22.8319 151.506 22.0319 151.037 20.4319C150.589 18.8319 150.365 16.6239 150.365 13.8079C150.365 12.5279 150.418 11.4613 150.525 10.6079C150.653 9.73326 150.941 8.99726 151.389 8.39992C151.858 7.78126 152.573 7.47192 153.533 7.47192C154.13 7.47192 154.653 7.61059 155.101 7.88792C155.57 8.16526 155.869 8.55992 155.997 9.07192C156.466 8.64526 157.074 8.32526 157.821 8.11192C158.568 7.89859 159.368 7.79192 160.221 7.79192C160.904 7.79192 161.597 7.96259 162.301 8.30392C163.026 8.64526 163.624 9.11459 164.093 9.71192C164.584 10.2879 164.829 10.9173 164.829 11.5999C164.829 12.2826 164.584 12.8906 164.093 13.4239C163.624 13.9359 162.994 14.1919 162.205 14.1919C161.949 14.1919 161.704 14.1599 161.469 14.0959C161.256 14.0319 161.064 13.9679 160.893 13.9039C160.466 13.7333 160.125 13.6479 159.869 13.6479C159.037 13.6479 158.301 13.9786 157.661 14.6399C157.042 15.2799 156.733 16.1119 156.733 17.1359C156.733 18.2666 156.69 19.2053 156.605 19.9519C156.52 20.6986 156.264 21.3706 155.837 21.9679C155.41 22.5439 154.728 22.8319 153.789 22.8319Z" fill="#8573C9"/>
<path id="Vector_3" d="M138.992 22.8319C137.626 22.8319 136.709 22.0319 136.24 20.4319C135.792 18.8319 135.568 16.6239 135.568 13.8079C135.568 12.5279 135.621 11.4613 135.728 10.6079C135.856 9.73326 136.144 8.99726 136.592 8.39992C137.061 7.78126 137.776 7.47192 138.736 7.47192C139.333 7.47192 139.855 7.61059 140.303 7.88792C140.773 8.16526 141.072 8.55992 141.2 9.07192C141.669 8.64526 142.277 8.32526 143.023 8.11192C143.77 7.89859 144.57 7.79192 145.424 7.79192C146.106 7.79192 146.8 7.96259 147.504 8.30392C148.229 8.64526 148.826 9.11459 149.296 9.71192C149.786 10.2879 150.032 10.9173 150.032 11.5999C150.032 12.2826 149.786 12.8906 149.296 13.4239C148.826 13.9359 148.197 14.1919 147.408 14.1919C147.152 14.1919 146.906 14.1599 146.672 14.0959C146.458 14.0319 146.266 13.9679 146.096 13.9039C145.669 13.7333 145.328 13.6479 145.072 13.6479C144.24 13.6479 143.504 13.9786 142.864 14.6399C142.245 15.2799 141.936 16.1119 141.936 17.1359C141.936 18.2666 141.893 19.2053 141.807 19.9519C141.722 20.6986 141.466 21.3706 141.04 21.9679C140.613 22.5439 139.93 22.8319 138.992 22.8319Z" fill="#8573C9"/>
<path id="Vector_4" d="M126.895 22.864C125.359 22.8853 123.983 22.5653 122.767 21.904C121.572 21.2427 120.634 20.336 119.951 19.184C119.29 18.0107 118.938 16.7093 118.895 15.28C118.874 13.8507 119.204 12.5707 119.887 11.44C120.57 10.3093 121.519 9.41334 122.735 8.75201C123.972 8.09068 125.359 7.76001 126.895 7.76001C128.388 7.76001 129.732 8.08001 130.927 8.72001C132.143 9.36001 133.103 10.256 133.807 11.408C134.511 12.56 134.884 13.8507 134.927 15.28C134.948 16.6667 134.618 17.936 133.935 19.088C133.252 20.2187 132.292 21.1253 131.055 21.808C129.839 22.4907 128.452 22.8427 126.895 22.864ZM126.991 18.192C127.567 18.192 128.068 17.968 128.495 17.52C128.922 17.072 129.135 16.5493 129.135 15.952C129.135 15.3547 128.922 14.8427 128.495 14.416C128.068 13.968 127.567 13.744 126.991 13.744C126.415 13.744 125.914 13.968 125.487 14.416C125.06 14.8427 124.847 15.3547 124.847 15.952C124.847 16.5493 125.06 17.072 125.487 17.52C125.914 17.968 126.415 18.192 126.991 18.192Z" fill="#8573C9"/>
<path id="Vector_5" d="M99.9823 22.8321C98.2756 22.8321 96.7823 22.3628 95.5023 21.4241C94.2436 20.4854 93.2729 19.1521 92.5903 17.4241C91.9076 15.6961 91.5663 13.6588 91.5663 11.3121C91.5663 9.94677 91.7903 8.48544 92.2383 6.92811C92.7076 5.37077 93.3689 4.05877 94.2223 2.99211C95.0969 1.90411 96.1103 1.36011 97.2623 1.36011C98.201 1.36011 98.9796 1.70144 99.5983 2.38411C100.217 3.06677 100.526 3.90944 100.526 4.91211C100.526 5.21077 100.452 5.61611 100.302 6.12811C100.174 6.61877 100.025 7.13077 99.8543 7.66411C99.5343 8.58144 99.2889 9.39211 99.1183 10.0961C98.9476 10.7788 98.8623 11.4401 98.8623 12.0801C98.8623 13.0188 99.0009 13.7014 99.2783 14.1281C99.5556 14.5548 99.897 14.7681 100.302 14.7681C100.836 14.7681 101.209 14.5014 101.422 13.9681C101.657 13.4134 101.774 12.4001 101.774 10.9281L101.742 8.72011C101.742 7.01344 101.966 5.65877 102.414 4.65611C102.862 3.63211 103.758 3.12011 105.102 3.12011C106.105 3.12011 106.862 3.39744 107.374 3.95211C107.886 4.50677 108.217 5.21077 108.366 6.06411C108.516 6.89611 108.59 7.90944 108.59 9.10411V10.7361C108.59 12.2934 108.718 13.4028 108.974 14.0641C109.252 14.7041 109.689 15.0241 110.286 15.0241C110.692 15.0241 111.001 14.8214 111.214 14.4161C111.449 13.9894 111.566 13.3601 111.566 12.5281C111.566 11.9094 111.492 11.2908 111.342 10.6721C111.193 10.0534 110.958 9.26411 110.638 8.30411C110.361 7.38677 110.158 6.70411 110.03 6.25611C109.924 5.78677 109.87 5.33877 109.87 4.91211C109.87 3.90944 110.19 3.07744 110.83 2.41611C111.492 1.75477 112.26 1.42411 113.134 1.42411C114.393 1.42411 115.449 1.95744 116.302 3.02411C117.177 4.06944 117.828 5.36011 118.254 6.89611C118.681 8.43211 118.894 9.90411 118.894 11.3121C118.894 13.6588 118.553 15.6961 117.87 17.4241C117.188 19.1521 116.206 20.4854 114.926 21.4241C113.668 22.3414 112.185 22.8001 110.478 22.8001C109.54 22.8001 108.622 22.5868 107.726 22.1601C106.83 21.7334 105.998 21.0934 105.23 20.2401C104.462 21.0934 103.62 21.7441 102.702 22.1921C101.806 22.6188 100.9 22.8321 99.9823 22.8321Z" fill="#8573C9"/>
<path id="Vector_6" d="M81.6498 8.97613C81.6498 10.0855 81.1271 10.8428 80.0818 11.2481C79.0365 11.6321 77.6071 11.8348 75.7938 11.8561C75.7725 12.3895 75.7618 13.2535 75.7618 14.4481C75.7618 15.6641 75.8471 16.5281 76.0178 17.0401C76.1245 17.4028 76.2845 17.6375 76.4978 17.7441C76.7325 17.8508 77.0738 17.9255 77.5218 17.9681C77.6711 17.9895 77.8311 18.0215 78.0018 18.0641C78.1938 18.0855 78.4071 18.1175 78.6418 18.1601C79.1325 18.2668 79.5165 18.5335 79.7938 18.9601C80.0711 19.3655 80.2098 19.8881 80.2098 20.5281C80.2098 21.2535 79.8365 21.8188 79.0898 22.2241C78.3431 22.6295 77.3191 22.8321 76.0178 22.8321C74.8231 22.8321 73.6818 22.4908 72.5938 21.8081C71.5058 21.1041 70.7591 20.1655 70.3538 18.9921C69.9271 17.7335 69.7138 15.3548 69.7138 11.8561C68.2205 11.8135 67.0151 11.6215 66.0978 11.2801C65.2018 10.9175 64.7538 10.2775 64.7538 9.36013C64.7538 8.20813 65.1805 7.44013 66.0338 7.05613C66.8871 6.6508 68.1138 6.43746 69.7138 6.41613C69.7778 4.70946 70.0445 3.2908 70.5138 2.16013C70.9831 1.00813 71.8258 0.432129 73.0418 0.432129C74.2791 0.432129 75.0791 0.965462 75.4418 2.03213C75.8258 3.0988 75.9965 4.56013 75.9538 6.41613C77.8951 6.3948 79.3245 6.54413 80.2418 6.86413C81.1805 7.18413 81.6498 7.88813 81.6498 8.97613Z" fill="#ADA2D7"/>
<path id="Vector_7" d="M62.659 4.46413C62.659 5.5308 62.4137 6.50146 61.923 7.37613C61.4537 8.22946 60.8777 8.90146 60.195 9.39213C59.5337 9.8828 58.9364 10.1281 58.403 10.1281C57.955 10.1281 57.5924 10.0001 57.315 9.74413C57.059 9.48813 56.931 9.16813 56.931 8.78413C56.931 8.5068 56.995 8.27213 57.123 8.08013C57.251 7.88813 57.443 7.6428 57.699 7.34413C57.8697 7.17346 58.0297 6.98146 58.179 6.76813C58.3284 6.5548 58.435 6.34146 58.499 6.12813C57.795 5.93613 57.2617 5.60546 56.899 5.13613C56.5364 4.64546 56.355 4.0908 56.355 3.47213C56.355 2.6828 56.6324 1.9788 57.187 1.36013C57.763 0.741463 58.4777 0.432129 59.331 0.432129C60.3337 0.432129 61.1337 0.773462 61.731 1.45613C62.3497 2.11746 62.659 3.12013 62.659 4.46413Z" fill="#ADA2D7"/>
<path id="Vector_8" d="M49.9538 22.832C49.1858 22.832 48.6098 22.6187 48.2258 22.192C47.8631 21.7654 47.6391 21.2427 47.5538 20.624C47.4684 20.0054 47.4258 19.2054 47.4258 18.224C47.4258 16.9654 47.2551 15.9947 46.9138 15.312C46.5725 14.6294 46.0178 14.288 45.2498 14.288C44.5458 14.288 44.0125 14.6294 43.6498 15.312C43.3085 15.9734 43.1378 16.8907 43.1378 18.064C43.1378 19.1947 43.1058 20.048 43.0418 20.624C42.9778 21.2 42.7644 21.712 42.4018 22.16C42.0391 22.5867 41.4418 22.8 40.6098 22.8C39.3938 22.8 38.5404 22.0214 38.0498 20.464C37.5591 18.8854 37.3138 17.04 37.3138 14.928C37.3138 9.80805 38.3911 7.24805 40.5458 7.24805C41.1431 7.24805 41.6338 7.39738 42.0178 7.69605C42.4018 7.97338 42.6684 8.37871 42.8178 8.91205C43.0951 8.61338 43.5218 8.34671 44.0978 8.11205C44.6951 7.87738 45.3244 7.76005 45.9858 7.76005C48.3324 7.76005 50.0818 8.61338 51.2338 10.32C52.4071 12.0267 52.9938 14.3414 52.9938 17.264C52.9938 18.992 52.7698 20.3574 52.3218 21.36C51.8738 22.3414 51.0845 22.832 49.9538 22.832Z" fill="#ADA2D7"/>
<path id="Vector_9" d="M28.9538 22.864C27.4178 22.8853 26.0418 22.5653 24.8258 21.904C23.6311 21.2427 22.6925 20.336 22.0098 19.184C21.3485 18.0107 20.9965 16.7093 20.9538 15.28C20.9325 13.8507 21.2631 12.5707 21.9458 11.44C22.6285 10.3093 23.5778 9.41334 24.7938 8.75201C26.0311 8.09068 27.4178 7.76001 28.9538 7.76001C30.4471 7.76001 31.7911 8.08001 32.9858 8.72001C34.2018 9.36001 35.1618 10.256 35.8658 11.408C36.5698 12.56 36.9431 13.8507 36.9858 15.28C37.0071 16.6667 36.6765 17.936 35.9938 19.088C35.3111 20.2187 34.3511 21.1253 33.1138 21.808C31.8978 22.4907 30.5111 22.8427 28.9538 22.864ZM29.0498 18.192C29.6258 18.192 30.1271 17.968 30.5538 17.52C30.9805 17.072 31.1938 16.5493 31.1938 15.952C31.1938 15.3547 30.9805 14.8427 30.5538 14.416C30.1271 13.968 29.6258 13.744 29.0498 13.744C28.4738 13.744 27.9725 13.968 27.5458 14.416C27.1191 14.8427 26.9058 15.3547 26.9058 15.952C26.9058 16.5493 27.1191 17.072 27.5458 17.52C27.9725 17.968 28.4738 18.192 29.0498 18.192Z" fill="#ADA2D7"/>
<path id="Vector_10" d="M8.992 22.8321C6.24 22.8321 4.23467 22.5015 2.976 21.8401C1.71733 21.1788 0.906667 20.1228 0.544 18.6721C0.181333 17.2215 0 14.9601 0 11.8881C0 8.77346 0.170667 6.4588 0.512 4.94413C0.874667 3.40813 1.67467 2.27746 2.912 1.55213C4.17067 0.805463 6.16533 0.432129 8.896 0.432129C10.5387 0.432129 12.2133 0.816129 13.92 1.58413C15.6267 2.3308 17.0667 3.56813 18.24 5.29613C19.4133 7.02413 20 9.23213 20 11.9201C20 14.5015 19.4027 16.6135 18.208 18.2561C17.0133 19.8775 15.5733 21.0508 13.888 21.7761C12.2027 22.4801 10.5707 22.8321 8.992 22.8321ZM7.008 17.2001C7.69067 17.2855 8.18133 17.3281 8.48 17.3281C9.99467 17.3281 11.168 16.9228 12 16.1121C12.832 15.3015 13.248 14.1815 13.248 12.7521C13.248 11.4721 12.8427 10.4801 12.032 9.77613C11.2213 9.0508 10.08 8.68813 8.608 8.68813C8.05333 8.68813 7.52 8.7308 7.008 8.81613V17.2001Z" fill="#ADA2D7"/>
</g>
</svg>
