<svg width="1280" height="752" viewBox="0 0 1280 752" fill="none" xmlns="http://www.w3.org/2000/svg">
<g clip-path="url(#clip0_1993_2576)">
<rect width="1280" height="752" fill="url(#paint0_linear_1993_2576)"/>
<g clip-path="url(#clip1_1993_2576)">
<path d="M184.559 528.101C265.453 575.573 369.977 547.692 418.019 465.827C466.062 383.961 439.43 279.112 358.536 231.64C277.642 184.167 173.118 212.048 125.076 293.914C77.0333 375.779 103.665 480.628 184.559 528.101Z" fill="url(#paint1_radial_1993_2576)"/>
<path d="M241.154 431.662C307.275 470.465 392.549 447.949 431.62 381.372C470.691 314.794 448.762 229.367 382.642 190.564C316.521 151.762 231.247 174.277 192.176 240.855C153.105 307.432 175.034 392.859 241.154 431.662Z" fill="url(#paint2_radial_1993_2576)"/>
<path d="M257.657 324.372C261.638 316.36 268.693 314.858 275.697 318.152C280.819 320.558 284.309 325.991 280.974 332.533C276.998 340.332 269.88 341.941 262.821 338.783C257.439 336.369 254.747 330.804 257.657 324.372Z" fill="#241561"/>
<path d="M326.792 364.943C331.845 357.56 329.716 350.668 323.425 346.16C318.826 342.862 312.381 342.465 308.296 348.566C303.426 355.841 305.493 362.84 311.692 367.462C316.424 370.984 322.596 370.62 326.792 364.943Z" fill="#241561"/>
<path d="M276.177 302.227C275.087 301.587 274.021 300.866 273.005 300.101C255.174 286.684 256.92 259.762 256.997 258.606C257.207 255.752 259.69 253.608 262.545 253.819C265.4 254.03 267.528 256.503 267.347 259.35C267.319 259.766 266.016 281.882 279.286 291.854C286.871 297.554 298.103 298.432 312.695 294.486C312.585 293.773 312.503 293.052 312.439 292.343C309.863 267.013 321.176 262.104 326.169 261.168C334.584 259.6 343.726 265.637 346.14 274.377C347.268 278.472 349.139 292.559 325.453 301.277C325.262 301.357 325.053 301.426 324.862 301.506C329.652 316.514 340.886 326.804 351.425 330.827C357.102 332.983 368.03 335.362 377.289 326.87C379.405 324.943 382.665 325.079 384.604 327.178C386.533 329.294 386.399 332.552 384.283 334.48C374.52 343.42 361.207 345.596 347.733 340.474C332.494 334.676 320.328 320.982 315.027 304.594C299.099 308.812 286.087 308.019 276.206 302.22L276.177 302.227ZM332.27 272.264C330.912 271.467 329.423 271.097 328.05 271.348C324.731 271.969 321.34 277.542 322.71 291.215C332.527 287.421 337.52 282.188 336.123 277.118C335.563 275.085 334.039 273.302 332.252 272.253L332.27 272.264Z" fill="#241561"/>
<path d="M270.773 377.015C295.445 391.494 321.311 393.236 328.546 380.907C335.782 368.578 321.647 346.846 296.975 332.367C272.303 317.889 246.437 316.146 239.202 328.475C231.966 340.804 246.101 362.536 270.773 377.015Z" fill="url(#paint3_radial_1993_2576)"/>
<path d="M271.533 328.481C273.112 329.407 275.143 328.879 276.069 327.301C276.995 325.723 276.466 323.693 274.887 322.766C273.308 321.839 271.277 322.367 270.351 323.946C269.425 325.524 269.954 327.554 271.533 328.481Z" fill="#F3F0FF"/>
<path d="M316.205 354.697C317.784 355.624 319.815 355.096 320.741 353.518C321.667 351.939 321.138 349.909 319.559 348.982C317.98 348.056 315.949 348.584 315.023 350.162C314.097 351.74 314.626 353.771 316.205 354.697Z" fill="#F3F0FF"/>
<path d="M257.417 403.99C245.587 397.049 241.612 381.799 248.551 369.976L253.267 361.939C254.713 359.475 257.888 358.649 260.354 360.096L294.305 380.02C296.771 381.467 297.599 384.642 296.152 387.107L291.436 395.143C284.498 406.966 269.246 410.932 257.417 403.99ZM259.581 371.647L257.485 375.219C253.44 382.113 255.76 391.013 262.657 395.061C269.554 399.109 278.456 396.794 282.502 389.9L284.598 386.328L259.581 371.647Z" fill="#241561"/>
</g>
<path d="M-544.146 1769.63C102.601 2149.17 801.853 2158.71 1017.68 1790.95C1233.5 1423.18 884.167 817.364 237.42 437.822C-409.328 58.2802 -1108.58 48.7356 -1324.4 416.504C-1540.23 784.272 -1190.89 1390.09 -544.146 1769.63Z" fill="#8573C9"/>
</g>
<defs>
<linearGradient id="paint0_linear_1993_2576" x1="952.5" y1="178.457" x2="822.825" y2="674.452" gradientUnits="userSpaceOnUse">
<stop stop-color="#8573C9"/>
<stop offset="1" stop-color="#C1B8E5"/>
</linearGradient>
<radialGradient id="paint1_radial_1993_2576" cx="0" cy="0" r="1" gradientUnits="userSpaceOnUse" gradientTransform="translate(249.493 421.307) rotate(30.4064) scale(160.472 147.018)">
<stop stop-color="#ADA2D7"/>
<stop offset="0.37" stop-color="#B7ADDF"/>
<stop offset="1" stop-color="#D1CAF4"/>
</radialGradient>
<radialGradient id="paint2_radial_1993_2576" cx="0" cy="0" r="1" gradientUnits="userSpaceOnUse" gradientTransform="translate(310.622 314.471) rotate(30.4064) scale(109.866 109.805)">
<stop stop-color="white" stop-opacity="0.6"/>
<stop offset="0.42" stop-color="white" stop-opacity="0.33"/>
<stop offset="0.81" stop-color="white" stop-opacity="0.09"/>
<stop offset="1" stop-color="white" stop-opacity="0"/>
</radialGradient>
<radialGradient id="paint3_radial_1993_2576" cx="0" cy="0" r="1" gradientUnits="userSpaceOnUse" gradientTransform="translate(283.874 354.691) rotate(30.4064) scale(40.9401 20.4587)">
<stop stop-color="white" stop-opacity="0.6"/>
<stop offset="0.09" stop-color="white" stop-opacity="0.51"/>
<stop offset="0.31" stop-color="white" stop-opacity="0.33"/>
<stop offset="0.51" stop-color="white" stop-opacity="0.19"/>
<stop offset="0.7" stop-color="white" stop-opacity="0.08"/>
<stop offset="0.87" stop-color="white" stop-opacity="0.02"/>
<stop offset="1" stop-color="white" stop-opacity="0"/>
</radialGradient>
<clipPath id="clip0_1993_2576">
<rect width="1280" height="752" fill="white"/>
</clipPath>
<clipPath id="clip1_1993_2576">
<rect width="342.053" height="393.201" fill="white" transform="translate(235.147 104.008) rotate(30.4064)"/>
</clipPath>
</defs>
</svg>
