<svg width="1280" height="753" viewBox="0 0 1280 753" fill="none" xmlns="http://www.w3.org/2000/svg">
<rect width="1280" height="752" transform="translate(0 0.198242)" fill="white"/>
<rect x="67.5" y="279.198" width="80" height="43" rx="21.5" fill="#8573C9"/>
<path d="M106.564 301.063V302.821H91.9395V301.063H98.127V300.079H93.7676V293.206H104.859V294.929H96.0176V295.825H104.49V297.442H96.0176V298.356H105V300.079H100.377V301.063H106.564ZM93.6445 306.179C93.6445 304.491 95.666 303.542 99.252 303.56C102.776 303.542 104.807 304.491 104.824 306.179C104.807 307.901 102.776 308.824 99.252 308.815C95.666 308.824 93.6445 307.901 93.6445 306.179ZM95.8945 306.179C95.877 306.864 96.9492 307.163 99.252 307.163C101.502 307.163 102.565 306.864 102.574 306.179C102.565 305.511 101.502 305.203 99.252 305.212C96.9492 305.203 95.877 305.511 95.8945 306.179ZM121.4 292.819V308.815H119.291V292.819H121.4ZM107.285 303.911C110.528 301.995 111.952 299.666 112.26 296.528H108.217V294.718H114.492C114.492 295.518 114.439 296.291 114.343 297.038H115.934V293.171H118.061V308.112H115.934V302.839H113.666V301.028H115.934V298.849H113.974C113.227 301.494 111.592 303.718 108.604 305.493L107.285 303.911Z" fill="white"/>
<path d="M98.6888 372.578V375.926H69.0248V372.578H81.7328V370.166H73.3088V356.018H94.3328V359.186H77.4488V361.598H93.7568V364.622H77.4848V366.998H94.9088V370.166H85.9808V372.578H98.6888ZM94.7648 383.234C94.7648 385.058 93.8168 386.486 91.9208 387.518C90.0248 388.55 87.3368 389.066 83.8568 389.066C80.3768 389.066 77.6888 388.55 75.7928 387.518C73.8968 386.486 72.9488 385.058 72.9488 383.234C72.9488 381.434 73.8968 380.03 75.7928 379.022C77.6888 377.99 80.3768 377.474 83.8568 377.474C87.3368 377.474 90.0248 377.99 91.9208 379.022C93.8168 380.03 94.7648 381.434 94.7648 383.234ZM90.3368 383.09C90.3368 382.346 89.7968 381.746 88.7168 381.29C87.6608 380.834 86.0408 380.606 83.8568 380.606C81.6728 380.606 80.0408 380.834 78.9608 381.29C77.8808 381.746 77.3408 382.346 77.3408 383.09V383.45C77.3408 384.17 77.8808 384.758 78.9608 385.214C80.0408 385.67 81.6728 385.898 83.8568 385.898C86.0408 385.898 87.6608 385.67 88.7168 385.214C89.7968 384.782 90.3368 384.194 90.3368 383.45V383.09ZM129.274 355.262V387.014H125.242V355.262H129.274ZM118.618 355.73H122.506V386.186H118.618V374.954H114.19V371.534H118.618V366.674H114.658C114.442 368.57 113.95 370.25 113.182 371.714C112.414 373.178 111.322 374.594 109.906 375.962C108.49 377.306 106.594 378.806 104.218 380.462L101.482 377.798C104.002 376.118 105.91 374.618 107.206 373.298C108.526 371.978 109.45 370.586 109.978 369.122C110.53 367.658 110.806 365.846 110.806 363.686V361.706H102.454V358.466H114.838V363.29H118.618V355.73ZM169.88 355.262V387.014H165.776V355.262H169.88ZM158.792 355.73H162.86V386.15H158.792V369.59H153.356V366.062H158.792V355.73ZM156.164 374.522L156.668 377.906C153.476 378.674 149.732 379.058 145.436 379.058H142.736V358.466H154.868V362.066H146.876V375.53C150.596 375.506 153.692 375.17 156.164 374.522ZM196.902 355.262H201.222V387.014H196.902V355.262ZM174.546 368.15C174.546 364.55 175.338 361.838 176.922 360.014C178.53 358.166 180.666 357.242 183.33 357.242C185.97 357.242 188.082 358.166 189.666 360.014C191.25 361.838 192.042 364.55 192.042 368.15C192.042 371.726 191.25 374.438 189.666 376.286C188.082 378.134 185.97 379.058 183.33 379.058C180.69 379.058 178.566 378.134 176.958 376.286C175.35 374.438 174.546 371.726 174.546 368.15ZM187.47 370.166V366.134C187.47 364.406 187.098 363.098 186.354 362.21C185.61 361.298 184.602 360.842 183.33 360.842C182.058 360.842 181.038 361.298 180.27 362.21C179.502 363.122 179.118 364.43 179.118 366.134V370.166C179.118 371.87 179.502 373.178 180.27 374.09C181.038 375.002 182.058 375.458 183.33 375.458C184.602 375.458 185.61 375.014 186.354 374.126C187.098 373.214 187.47 371.894 187.47 370.166ZM233.355 355.262V387.014H229.107V369.842H223.851V366.242H229.107V355.262H233.355ZM224.679 374.99L225.183 378.446C223.215 378.782 221.139 379.046 218.955 379.238C216.771 379.43 214.119 379.526 210.999 379.526H207.543V357.566H222.231V361.094H211.791V366.422H221.763V369.914H211.791V376.034C214.551 376.01 216.939 375.914 218.955 375.746C220.971 375.578 222.879 375.326 224.679 374.99ZM258.973 360.878V358.754H242.341V355.838H263.077V363.686H246.589V365.81H263.869V368.726H242.413V360.878H258.973ZM267.685 370.598V373.73H238.021V370.598H267.685ZM242.377 385.862V380.678H259.477V378.662H242.197V375.674H263.437V383.45H246.337V385.538H264.301V388.598H245.113C243.289 388.598 242.377 387.686 242.377 385.862ZM308.29 372.578V375.926H278.626V372.578H291.334V370.166H282.91V356.018H303.934V359.186H287.05V361.598H303.358V364.622H287.086V366.998H304.51V370.166H295.582V372.578H308.29ZM304.366 383.234C304.366 385.058 303.418 386.486 301.522 387.518C299.626 388.55 296.938 389.066 293.458 389.066C289.978 389.066 287.29 388.55 285.394 387.518C283.498 386.486 282.55 385.058 282.55 383.234C282.55 381.434 283.498 380.03 285.394 379.022C287.29 377.99 289.978 377.474 293.458 377.474C296.938 377.474 299.626 377.99 301.522 379.022C303.418 380.03 304.366 381.434 304.366 383.234ZM299.938 383.09C299.938 382.346 299.398 381.746 298.318 381.29C297.262 380.834 295.642 380.606 293.458 380.606C291.274 380.606 289.642 380.834 288.562 381.29C287.482 381.746 286.942 382.346 286.942 383.09V383.45C286.942 384.17 287.482 384.758 288.562 385.214C289.642 385.67 291.274 385.898 293.458 385.898C295.642 385.898 297.262 385.67 298.318 385.214C299.398 384.782 299.938 384.194 299.938 383.45V383.09ZM338.876 355.262V387.014H334.808V371.03H331.964V386.15H327.896V355.73H331.964V367.502H334.808V355.262H338.876ZM323.54 361.166H313.856V357.71H323.54V361.166ZM310.436 363.938H326.564V367.286H322.928V367.502C324.584 368.534 325.412 370.37 325.412 373.01C325.412 375.242 324.788 377.018 323.54 378.338C322.292 379.634 320.636 380.282 318.572 380.282C316.484 380.282 314.828 379.634 313.604 378.338C312.38 377.018 311.768 375.242 311.768 373.01C311.768 370.394 312.572 368.57 314.18 367.538V367.286H310.436V363.938ZM321.416 371.174C321.416 370.094 321.164 369.266 320.66 368.69C320.156 368.09 319.46 367.79 318.572 367.79C317.708 367.79 317.012 368.09 316.484 368.69C315.98 369.29 315.728 370.118 315.728 371.174V373.406C315.728 374.462 315.98 375.29 316.484 375.89C317.012 376.49 317.708 376.79 318.572 376.79C319.436 376.79 320.12 376.49 320.624 375.89C321.152 375.29 321.416 374.462 321.416 373.406V371.174ZM381.857 370.598H376.961V387.05H372.677V355.262H376.961V367.034H381.857V370.598ZM369.617 361.274H351.617V357.71H369.617V361.274ZM370.517 374.846L370.913 378.158C368.465 378.542 365.477 378.83 361.949 379.022C358.445 379.214 354.809 379.31 351.041 379.31L350.645 375.782L354.965 375.746L353.993 363.578L358.169 363.218L358.781 375.674C360.269 375.626 361.409 375.578 362.201 375.53L363.101 363.146L367.277 363.542L366.053 375.278C367.757 375.158 369.245 375.014 370.517 374.846ZM413.991 366.458H409.167V374.27H404.883V355.262H409.167V362.858H413.991V366.458ZM391.959 372.974C390.303 372.974 388.827 372.65 387.531 372.002C386.235 371.33 385.227 370.382 384.507 369.158C383.787 367.91 383.427 366.458 383.427 364.802C383.427 363.146 383.787 361.706 384.507 360.482C385.227 359.234 386.235 358.286 387.531 357.638C388.827 356.966 390.303 356.63 391.959 356.63C393.591 356.63 395.043 356.966 396.315 357.638C397.611 358.286 398.619 359.234 399.339 360.482C400.059 361.706 400.419 363.146 400.419 364.802C400.419 366.458 400.059 367.91 399.339 369.158C398.619 370.382 397.611 371.33 396.315 372.002C395.043 372.65 393.591 372.974 391.959 372.974ZM391.959 369.518C393.159 369.518 394.119 369.17 394.839 368.474C395.559 367.778 395.919 366.83 395.919 365.63V363.974C395.919 362.774 395.559 361.826 394.839 361.13C394.119 360.434 393.159 360.086 391.959 360.086C390.735 360.086 389.751 360.434 389.007 361.13C388.287 361.826 387.927 362.774 387.927 363.974V365.63C387.927 366.83 388.287 367.778 389.007 368.474C389.751 369.17 390.735 369.518 391.959 369.518ZM388.287 375.962H409.167V388.706H404.955V379.562H388.287V375.962ZM446.053 371.354H441.373V387.05H437.089V355.262H441.373V367.754H446.053V371.354ZM430.537 360.662H419.809V357.026H430.537V360.662ZM415.237 363.686H434.497V367.214H429.997V367.466C431.917 368.594 432.877 370.538 432.877 373.298C432.877 374.786 432.541 376.118 431.869 377.294C431.197 378.446 430.261 379.346 429.061 379.994C427.885 380.618 426.553 380.93 425.065 380.93C423.553 380.93 422.197 380.618 420.997 379.994C419.821 379.346 418.897 378.446 418.225 377.294C417.553 376.142 417.217 374.81 417.217 373.298C417.217 370.538 418.177 368.594 420.097 367.466V367.214H415.237V363.686ZM428.737 371.642C428.737 370.394 428.401 369.434 427.729 368.762C427.081 368.066 426.193 367.718 425.065 367.718C423.937 367.718 423.025 368.066 422.329 368.762C421.657 369.434 421.321 370.394 421.321 371.642V373.406C421.321 374.63 421.657 375.59 422.329 376.286C423.025 376.982 423.937 377.33 425.065 377.33C426.193 377.33 427.081 376.994 427.729 376.322C428.401 375.626 428.737 374.654 428.737 373.406V371.642ZM473.182 368.222H452.014V356.522H456.298V364.694H473.182V368.222ZM477.286 371.282V374.882H447.622V371.282H477.286ZM456.046 384.026H473.542V387.59H454.462C452.638 387.59 451.726 386.678 451.726 384.854V377.402H456.046V384.026ZM511.304 355.262H515.624V387.014H511.304V355.262ZM489.2 377.294C492.344 375.71 494.732 374.258 496.364 372.938C498.02 371.618 499.184 370.202 499.856 368.69C500.528 367.178 500.864 365.318 500.864 363.11V361.382H490.28V357.782H505.22V363.11C505.22 365.846 504.8 368.174 503.96 370.094C503.12 371.99 501.74 373.754 499.82 375.386C497.9 376.994 495.2 378.734 491.72 380.606L489.2 377.294ZM549.99 372.794V376.286H520.326V372.794H533.034V370.382H524.682V361.67H541.35V359.258H524.61V356.054H545.49V364.73H528.822V367.142H546.282V370.382H537.282V372.794H549.99ZM524.178 378.41H545.742V388.526H541.458V381.866H524.178V378.41Z" fill="#8573C9"/>
<path d="M73.8809 429.583C73.8721 432.22 75.6035 434.944 78.0293 435.981L77.1152 437.282C75.2607 436.465 73.7842 434.725 73.0547 432.624C72.3252 434.874 70.8486 436.79 69.0117 437.687L68.0449 436.368C70.418 435.252 72.1758 432.299 72.1934 429.583V427.913H68.5898V426.524H77.4668V427.913H73.8809V429.583ZM79.4531 440.692V424.942H81.123V440.692H79.4531ZM96.2227 425.733V426.929C96.2314 428.159 96.2314 429.583 95.8184 431.481H98.0508V432.853H83.6367V431.481H94.1309C94.5527 429.645 94.5703 428.3 94.5703 427.104H85.4473V425.733H96.2227ZM85.3945 440.499V434.856H96.2402V440.499H85.3945ZM87.0293 439.146H94.5879V436.175H87.0293V439.146ZM111.709 424.942V431.341H113.994V432.712H111.709V440.692H110.039V424.942H111.709ZM99.0527 436.263C101.355 433.863 102.19 431.156 102.357 428.001H99.6152V426.63H103.939C103.931 430.567 103.228 434.153 100.371 437.194L99.0527 436.263ZM103.553 437.317C105.899 434.575 106.585 431.358 106.708 428.001H104.449V426.63H108.281C108.281 430.611 107.78 434.812 104.889 438.231L103.553 437.317ZM120.551 429.583C120.542 432.22 122.273 434.944 124.699 435.981L123.785 437.282C121.931 436.465 120.454 434.725 119.725 432.624C118.995 434.874 117.519 436.79 115.682 437.687L114.715 436.368C117.088 435.252 118.846 432.299 118.863 429.583V427.913H115.26V426.524H124.137V427.913H120.551V429.583ZM126.123 440.692V424.942H127.793V440.692H126.123ZM140.203 427.772C140.194 429.785 141.592 431.692 144 432.501L143.156 433.802C141.372 433.187 140.062 431.956 139.377 430.409C138.691 432.105 137.32 433.45 135.475 434.101L134.578 432.8C137.039 431.965 138.524 429.926 138.533 427.755V427.333H135.07V425.979H143.596V427.333H140.203V427.772ZM136.67 436.562V435.208H147.076V440.692H145.406V436.562H136.67ZM145.406 434.435V424.942H147.076V428.985H149.361V430.392H147.076V434.435H145.406ZM155.848 427.298C155.839 429.504 157.271 431.473 159.662 432.255L158.748 433.556C157.017 432.923 155.742 431.71 155.057 430.128C154.38 431.93 153.009 433.345 151.102 434.03L150.205 432.694C152.719 431.833 154.178 429.732 154.195 427.368V425.821H155.848V427.298ZM152.789 437.687C152.78 435.779 154.802 434.672 158.115 434.681C161.411 434.672 163.433 435.779 163.441 437.687C163.433 439.585 161.411 440.666 158.115 440.657C154.802 440.666 152.78 439.585 152.789 437.687ZM154.441 437.687C154.433 438.732 155.804 439.348 158.115 439.339C160.409 439.348 161.78 438.732 161.789 437.687C161.78 436.605 160.409 435.981 158.115 435.981C155.804 435.981 154.433 436.605 154.441 437.687ZM158.396 429.513V428.142H161.719V424.942H163.389V434.241H161.719V429.513H158.396ZM178.189 424.96V430.022H180.475V431.411H178.189V436.737H176.52V424.96H178.189ZM165.832 428.142V426.788H169.699V424.942H171.369V426.788H175.219V428.142H165.832ZM166.693 431.868C166.685 430.066 168.24 428.889 170.525 428.897C172.784 428.889 174.34 430.066 174.34 431.868C174.34 433.652 172.784 434.812 170.525 434.821C168.24 434.812 166.685 433.652 166.693 431.868ZM168.205 440.358V435.806H169.875V439.005H178.857V440.358H168.205ZM168.311 431.868C168.293 432.896 169.189 433.529 170.525 433.521C171.861 433.529 172.758 432.896 172.775 431.868C172.758 430.831 171.861 430.189 170.525 430.181C169.189 430.189 168.293 430.831 168.311 431.868ZM193.939 425.927C193.931 429.935 191.18 432.773 186.609 434.065L185.941 432.765C189.589 431.745 191.83 429.785 192.146 427.298H186.75V425.927H193.939ZM188.227 436.175V434.821H198.896V440.657H197.227V436.175H188.227ZM194.027 430.356V428.968H197.227V424.96H198.896V434.171H197.227V430.356H194.027ZM214.453 424.942V434.312H212.783V430.321H209.848V428.95H212.783V424.942H214.453ZM201.322 432.888C203.766 432.035 205.269 429.908 205.26 427.737V427.386H201.85V426.032H210.34V427.386H206.965V427.72C206.956 429.715 208.38 431.657 210.762 432.466L209.9 433.784C208.134 433.178 206.833 431.912 206.147 430.356C205.462 432.114 204.082 433.529 202.201 434.224L201.322 432.888ZM203.854 437.722C203.845 435.85 205.866 434.76 209.18 434.751C212.476 434.76 214.497 435.85 214.506 437.722C214.497 439.594 212.476 440.684 209.18 440.692C205.866 440.684 203.845 439.594 203.854 437.722ZM205.506 437.722C205.497 438.785 206.868 439.392 209.18 439.374C211.474 439.392 212.845 438.785 212.854 437.722C212.845 436.649 211.474 436.043 209.18 436.052C206.868 436.043 205.497 436.649 205.506 437.722ZM234.369 424.942V440.692H232.682V424.942H234.369ZM221.432 436.474C225.615 434.479 227.663 431.64 227.988 427.966H222.188V426.63H229.676C229.676 431.244 227.716 435.234 222.311 437.827L221.432 436.474ZM251.227 433.538V434.892H236.812V433.538H243.193V432.044H238.658V428.036H247.746V426.63H238.623V425.312H249.416V429.267H240.311V430.743H249.732V432.044H244.846V433.538H251.227ZM238.43 437.335V435.999H249.504V440.569H247.816V437.335H238.43ZM259.559 425.206C263.109 425.197 265.175 426.155 265.184 427.913C265.175 429.68 263.109 430.638 259.559 430.638C256.008 430.638 253.925 429.68 253.934 427.913C253.925 426.155 256.008 425.197 259.559 425.206ZM252.387 432.94V431.604H266.748V432.94H252.387ZM254.109 435.401V434.153H264.938V437.845H255.762V439.251H265.377V440.534H254.127V436.632H263.285V435.401H254.109ZM255.674 427.913C255.665 428.889 257.054 429.39 259.559 429.39C262.081 429.39 263.47 428.889 263.461 427.913C263.47 426.981 262.081 426.437 259.559 426.437C257.054 426.437 255.665 426.981 255.674 427.913ZM285.434 424.942V440.692H283.746V424.942H285.434ZM272.496 436.474C276.68 434.479 278.728 431.64 279.053 427.966H273.252V426.63H280.74C280.74 431.244 278.78 435.234 273.375 437.827L272.496 436.474ZM300.27 424.96V429.601H302.555V431.007H300.27V436.526H298.6V424.96H300.27ZM288.51 433.925V426.085H290.145V428.599H294.275V426.085H295.928V433.925H288.51ZM290.145 432.589H294.275V429.917H290.145V432.589ZM290.285 440.358V435.384H291.955V439.005H300.938V440.358H290.285ZM310.623 425.892C313.928 425.892 316.441 427.641 316.441 430.286C316.441 432.949 313.928 434.689 310.623 434.681C307.327 434.689 304.813 432.949 304.822 430.286C304.813 427.641 307.327 425.892 310.623 425.892ZM303.451 438.653V437.265H317.865V438.653H303.451ZM306.422 430.286C306.413 432.123 308.206 433.31 310.623 433.31C313.031 433.31 314.815 432.123 314.824 430.286C314.815 428.458 313.031 427.236 310.623 427.245C308.206 427.236 306.413 428.458 306.422 430.286ZM333.422 437.405V438.812H319.008V437.405H325.354V434.646H320.766V429.636H330.012V427.421H320.73V426.05H331.664V430.972H322.418V433.274H332.033V434.646H327.006V437.405H333.422ZM337.395 437.985L335.988 442.837H334.494L335.426 437.985H337.395ZM358.277 431.13V432.501H355.834V440.675H354.164V424.942H355.834V431.13H358.277ZM344.162 436.72V426.472H345.814V435.331C348.012 435.322 350.306 435.138 352.811 434.628L353.004 436.034C350.306 436.57 347.827 436.729 345.463 436.72H344.162ZM364.254 426.067C366.741 426.059 368.534 427.597 368.543 429.812C368.534 432.026 366.741 433.564 364.254 433.573C361.775 433.564 359.956 432.026 359.965 429.812C359.956 427.597 361.775 426.059 364.254 426.067ZM359.209 435.946C362.074 435.946 366.047 435.92 369.492 435.419L369.615 436.632C366.056 437.317 362.232 437.335 359.42 437.335L359.209 435.946ZM361.617 429.812C361.6 431.209 362.725 432.114 364.254 432.114C365.783 432.114 366.908 431.209 366.908 429.812C366.908 428.432 365.783 427.509 364.254 427.509C362.725 427.509 361.6 428.432 361.617 429.812ZM370.477 440.728V424.942H372.146V440.728H370.477ZM391.447 424.942V428.651H393.732V430.04H391.447V433.837H389.777V424.942H391.447ZM379.002 432.729C382.772 431.736 384.987 429.759 385.295 427.298H379.74V425.927H387.105C387.097 429.961 384.363 432.8 379.67 434.065L379.002 432.729ZM381.357 440.481V434.505H391.447V440.481H381.357ZM383.027 439.146H389.795V435.894H383.027V439.146ZM407.76 424.942V434.312H406.09V430.321H403.154V428.95H406.09V424.942H407.76ZM394.629 432.888C397.072 432.035 398.575 429.908 398.566 427.737V427.386H395.156V426.032H403.646V427.386H400.271V427.72C400.263 429.715 401.687 431.657 404.068 432.466L403.207 433.784C401.44 433.178 400.14 431.912 399.454 430.356C398.769 432.114 397.389 433.529 395.508 434.224L394.629 432.888ZM397.16 437.722C397.151 435.85 399.173 434.76 402.486 434.751C405.782 434.76 407.804 435.85 407.812 437.722C407.804 439.594 405.782 440.684 402.486 440.692C399.173 440.684 397.151 439.594 397.16 437.722ZM398.812 437.722C398.804 438.785 400.175 439.392 402.486 439.374C404.78 439.392 406.151 438.785 406.16 437.722C406.151 436.649 404.78 436.043 402.486 436.052C400.175 436.043 398.804 436.649 398.812 437.722ZM428.133 424.942V440.692H426.533V432.571H424.67V439.884H423.088V425.259H424.67V431.2H426.533V424.942H428.133ZM414.404 435.489C414.87 435.489 415.406 435.489 415.986 435.48V428.229H414.738V426.858H422.051V428.229H420.803V435.287C421.33 435.234 421.84 435.182 422.314 435.12L422.402 436.351C419.924 436.825 416.628 436.896 414.598 436.896L414.404 435.489ZM417.516 435.454C418.096 435.437 418.685 435.419 419.273 435.384V428.229H417.516V435.454ZM443.268 424.96V436.614H441.598V430.673H438.645V429.319H441.598V424.96H443.268ZM430.928 434.259V426.173H438.064V427.526H432.58V429.478H437.607V430.796H432.58V432.87C435.278 432.87 436.887 432.809 438.803 432.466L438.961 433.819C436.896 434.188 435.138 434.259 432.105 434.259H430.928ZM433.002 440.358V435.612H434.689V439.005H443.672V440.358H433.002ZM454.465 426.63V427.597C454.456 428.924 454.456 430.954 454.008 433.767L452.355 433.644C452.76 431.13 452.804 429.293 452.812 427.983H446.414V426.63H454.465ZM445.535 435.946C446.52 435.938 447.618 435.929 448.77 435.902V431.13H450.422V435.85C452.092 435.779 453.806 435.674 455.379 435.472L455.467 436.72C452.188 437.247 448.523 437.317 445.729 437.3L445.535 435.946ZM456.275 440.692V424.942H457.963V431.446H460.371V432.87H457.963V440.692H456.275ZM478.389 426.454V428.001C478.38 429.943 478.38 432.123 477.791 435.349L476.104 435.173C476.71 432.123 476.71 429.891 476.719 428.001V427.808H467.156V426.454H478.389ZM465.645 438.565V437.177H471.111V431.622H472.764V437.177H480.006V438.565H465.645ZM489.516 426.278V433.679H482.027V426.278H489.516ZM483.662 432.343H487.863V427.632H483.662V432.343ZM483.961 440.218V435.155H485.648V438.847H494.736V440.218H483.961ZM492.592 436.245V424.96H494.262V436.245H492.592ZM501.891 426.067C504.378 426.059 506.171 427.597 506.18 429.812C506.171 432.026 504.378 433.564 501.891 433.573C499.412 433.564 497.593 432.026 497.602 429.812C497.593 427.597 499.412 426.059 501.891 426.067ZM496.846 435.946C499.711 435.946 503.684 435.92 507.129 435.419L507.252 436.632C503.692 437.317 499.869 437.335 497.057 437.335L496.846 435.946ZM499.254 429.812C499.236 431.209 500.361 432.114 501.891 432.114C503.42 432.114 504.545 431.209 504.545 429.812C504.545 428.432 503.42 427.509 501.891 427.509C500.361 427.509 499.236 428.432 499.254 429.812ZM508.113 440.728V424.942H509.783V440.728H508.113ZM531.07 433.819V435.173H524.672V440.675H523.037V435.173H516.709V433.819H531.07ZM517.518 431.306C520.453 430.901 522.896 429.152 522.949 427.21H518.045V425.874H529.717V427.21H524.848C524.874 429.152 527.3 430.901 530.279 431.306L529.664 432.624C527.08 432.22 524.848 430.945 523.89 429.152C522.923 430.945 520.699 432.22 518.15 432.624L517.518 431.306ZM545.783 424.942V440.692H544.184V424.942H545.783ZM532.037 436.351C534.27 435.006 535.403 432.141 535.412 429.337V428.071H532.512V426.718H539.719V428.071H537.012V429.337C537.012 432.026 538.102 434.725 540.316 435.999L539.314 437.229C537.812 436.333 536.783 434.725 536.229 432.826C535.667 434.883 534.595 436.641 533.057 437.599L532.037 436.351ZM538.559 431.886V430.515H541.002V425.276H542.584V439.901H541.002V431.886H538.559ZM562.219 432.167V433.45H547.805V432.167H562.219ZM549.51 435.753V434.558H560.443V438.021H551.197V439.321H560.936V440.499H549.527V436.913H558.791V435.753H549.51ZM549.615 426.524V425.347H560.408V428.757H551.303V429.952H560.672V431.13H549.65V427.649H558.738V426.524H549.615ZM580.148 424.96V430.022H582.434V431.411H580.148V436.737H578.479V424.96H580.148ZM567.791 428.142V426.788H571.658V424.942H573.328V426.788H577.178V428.142H567.791ZM568.652 431.868C568.644 430.066 570.199 428.889 572.484 428.897C574.743 428.889 576.299 430.066 576.299 431.868C576.299 433.652 574.743 434.812 572.484 434.821C570.199 434.812 568.644 433.652 568.652 431.868ZM570.164 440.358V435.806H571.834V439.005H580.816V440.358H570.164ZM570.27 431.868C570.252 432.896 571.148 433.529 572.484 433.521C573.82 433.529 574.717 432.896 574.734 431.868C574.717 430.831 573.82 430.189 572.484 430.181C571.148 430.189 570.252 430.831 570.27 431.868ZM596.074 429.565V430.901H585.264V425.487H586.934V429.565H596.074ZM583.33 433.942V432.606H597.709V433.942H591.469V437.054H589.816V433.942H583.33ZM585.123 440.358V435.718H586.775V439.005H596.197V440.358H585.123ZM612.439 424.942V440.692H610.84V424.942H612.439ZM599.062 431.745C599.062 428.335 600.398 426.199 602.455 426.208C604.371 426.199 605.663 428.019 605.856 430.972H607.641V425.241H609.24V439.919H607.641V432.325H605.865C605.716 435.401 604.406 437.309 602.455 437.3C600.398 437.309 599.062 435.164 599.062 431.745ZM600.609 431.745C600.609 434.25 601.321 435.727 602.455 435.718C603.615 435.727 604.336 434.25 604.336 431.745C604.336 429.231 603.615 427.764 602.455 427.772C601.321 427.764 600.609 429.231 600.609 431.745ZM80.4727 451.96V456.636H82.7227V458.007H80.4727V462.56H78.8027V451.96H80.4727ZM67.9746 460.802C69.1963 460.802 70.6113 460.802 72.0879 460.767V459.703C70.2949 459.501 69.1523 458.657 69.1699 457.392C69.1523 455.95 70.6553 455.054 72.9141 455.071C75.1729 455.054 76.6494 455.95 76.6582 457.392C76.6494 458.648 75.5332 459.492 73.7578 459.703V460.705C75.1641 460.635 76.5879 460.521 77.9062 460.327L78.0469 461.522C74.6631 462.111 70.9277 462.138 68.1504 462.138L67.9746 460.802ZM68.3789 454.544V453.296H72.0879V451.819H73.7578V453.296H77.4668V454.544H68.3789ZM69.9434 464.599V463.298H80.4727V467.692H78.8027V464.599H69.9434ZM70.752 457.392C70.752 458.13 71.5693 458.613 72.9141 458.604C74.2412 458.613 75.0674 458.13 75.0586 457.392C75.0674 456.636 74.2412 456.196 72.9141 456.214C71.5693 456.196 70.752 456.636 70.752 457.392ZM96.6973 451.96V463.403H95.0273V451.96H96.6973ZM83.9531 456.917C83.9619 454.641 85.7725 453.023 88.1543 453.015C90.5273 453.023 92.3379 454.641 92.3379 456.917C92.3379 459.229 90.5273 460.837 88.1543 460.837C85.7725 460.837 83.9619 459.229 83.9531 456.917ZM85.5879 456.917C85.5791 458.402 86.6865 459.378 88.1543 459.378C89.5957 459.378 90.7031 458.402 90.7031 456.917C90.7031 455.467 89.5957 454.474 88.1543 454.474C86.6865 454.474 85.5791 455.467 85.5879 456.917ZM86.3965 467.358V462.243H88.084V466.005H97.1719V467.358H86.3965ZM111.568 451.89V455.581H113.871V456.952H111.568V460.556H109.898V451.89H111.568ZM99.2109 454.597V453.278H103.078V451.802H104.748V453.278H108.598V454.597H99.2109ZM100.072 457.778C100.063 456.188 101.593 455.194 103.904 455.194C106.216 455.194 107.719 456.188 107.719 457.778C107.719 459.378 106.216 460.354 103.904 460.345C101.593 460.354 100.063 459.378 100.072 457.778ZM101.391 462.542V461.294H111.568V464.95H103.061V466.269H112.113V467.534H101.426V463.772H109.916V462.542H101.391ZM101.689 457.778C101.672 458.631 102.542 459.132 103.904 459.132C105.258 459.132 106.137 458.631 106.154 457.778C106.137 456.926 105.258 456.398 103.904 456.39C102.542 456.398 101.672 456.926 101.689 457.778ZM127.213 453.331C127.204 455.423 129.762 457.383 132.855 457.796L132.205 459.167C129.63 458.754 127.371 457.418 126.343 455.563C125.314 457.418 123.056 458.754 120.498 459.167L119.83 457.796C122.915 457.383 125.464 455.449 125.473 453.331V452.47H127.213V453.331ZM119.145 462.085V460.714H133.506V462.085H127.107V467.692H125.473V462.085H119.145ZM144.562 462.349C144.562 463.702 145.23 465.135 146.663 465.987C148.104 465.064 148.816 463.562 148.816 462.349V461.593H150.451V462.349C150.442 463.983 151.523 465.565 153.58 466.233L152.754 467.464C151.198 466.928 150.135 465.873 149.59 464.59C149.089 465.855 148.148 467.007 146.707 467.604C145.195 467.033 144.237 465.917 143.754 464.634C143.183 465.873 142.146 466.919 140.66 467.464L139.816 466.233C141.838 465.513 142.937 463.869 142.945 462.349V461.593H144.562V462.349ZM139.412 456.548C139.421 454.342 141.196 452.83 143.613 452.821C146.021 452.83 147.797 454.342 147.797 456.548C147.797 458.728 146.021 460.239 143.613 460.239C141.196 460.239 139.421 458.728 139.412 456.548ZM141.047 456.548C141.038 457.919 142.119 458.851 143.613 458.851C145.09 458.851 146.162 457.919 146.162 456.548C146.162 455.168 145.09 454.236 143.613 454.245C142.119 454.236 141.038 455.168 141.047 456.548ZM150.486 460.925V451.96H152.156V460.925H150.486ZM158.924 453.12C161.068 453.129 162.624 454.939 162.879 457.849H166.131V451.942H167.783V467.728H166.131V459.202H162.896C162.712 462.278 161.121 464.186 158.924 464.177C156.577 464.186 154.916 462.041 154.934 458.64C154.916 455.273 156.577 453.129 158.924 453.12ZM156.516 458.64C156.524 461.145 157.5 462.683 158.924 462.683C160.348 462.683 161.323 461.145 161.332 458.64C161.323 456.17 160.348 454.623 158.924 454.614C157.5 454.623 156.524 456.17 156.516 458.64ZM184.623 464.335V465.724H170.209V464.335H173.654V460.222C172.362 459.51 171.571 458.385 171.58 456.97C171.571 454.491 174.006 452.865 177.381 452.856C180.765 452.865 183.199 454.491 183.199 456.97C183.199 458.358 182.443 459.475 181.178 460.187V464.335H184.623ZM173.197 456.97C173.197 458.657 174.911 459.756 177.381 459.765C179.833 459.756 181.573 458.657 181.582 456.97C181.573 455.273 179.833 454.192 177.381 454.192C174.911 454.192 173.197 455.273 173.197 456.97ZM175.307 464.335H179.49V460.837C178.849 460.986 178.137 461.065 177.381 461.065C176.643 461.065 175.939 460.986 175.307 460.837V464.335Z" fill="#47484C"/>
<g filter="url(#filter0_dd_1393_7843)">
<path d="M872.339 224.094C842.495 241.784 818.515 267.863 803.384 299.083L887.493 339.846C894.625 325.129 905.93 312.835 919.998 304.496L872.339 224.094Z" fill="#ADA2D7"/>
<path d="M803.383 299.086C789.78 327.154 783.844 358.321 786.177 389.424C788.51 420.527 799.029 450.46 816.666 476.184L893.754 423.332C885.44 411.205 880.481 397.095 879.381 382.433C878.281 367.771 881.08 353.079 887.492 339.847L803.383 299.086Z" fill="#C1B8E5"/>
<path d="M991.322 550.653C958.139 556.135 924.079 552.04 893.141 538.847C862.203 525.653 835.67 503.91 816.654 476.168L893.748 423.325C902.712 436.402 915.22 446.652 929.804 452.872C944.388 459.091 960.444 461.021 976.087 458.437L991.322 550.653Z" fill="#D1C9F2"/>
<path d="M1139.34 376.198C1139.34 352.975 1134.77 329.979 1125.88 308.524C1116.99 287.068 1103.97 267.573 1087.55 251.152C1071.13 234.731 1051.63 221.705 1030.17 212.818C1008.72 203.93 985.723 199.356 962.5 199.356L962.5 292.835C973.448 292.835 984.288 294.991 994.402 299.18C1004.52 303.37 1013.71 309.51 1021.45 317.251C1029.19 324.992 1035.33 334.182 1039.52 344.296C1043.71 354.411 1045.86 365.251 1045.86 376.198H1139.34Z" fill="#F3F0FF"/>
<path d="M962.5 199.356C930.656 199.356 899.403 207.955 872.041 224.243L919.858 304.567C932.756 296.888 947.489 292.835 962.5 292.835V199.356Z" fill="#A092D7"/>
<path d="M1139.34 376.198C1139.34 418.007 1124.53 458.464 1097.53 490.388C1070.54 522.312 1033.1 543.639 991.874 550.584L976.347 458.404C995.782 455.13 1013.43 445.077 1026.15 430.027C1038.88 414.978 1045.86 395.907 1045.86 376.198H1139.34Z" fill="#E8E2FF"/>
</g>
<path d="M1054.53 270.584H1056.45V284.696H1054.53V270.584ZM1044.6 276.312C1044.6 274.712 1044.95 273.507 1045.65 272.696C1046.37 271.875 1047.32 271.464 1048.5 271.464C1049.68 271.464 1050.61 271.875 1051.32 272.696C1052.02 273.507 1052.37 274.712 1052.37 276.312C1052.37 277.901 1052.02 279.107 1051.32 279.928C1050.61 280.749 1049.68 281.16 1048.5 281.16C1047.33 281.16 1046.39 280.749 1045.67 279.928C1044.96 279.107 1044.6 277.901 1044.6 276.312ZM1050.34 277.208V275.416C1050.34 274.648 1050.18 274.067 1049.85 273.672C1049.52 273.267 1049.07 273.064 1048.5 273.064C1047.94 273.064 1047.48 273.267 1047.14 273.672C1046.8 274.077 1046.63 274.659 1046.63 275.416V277.208C1046.63 277.965 1046.8 278.547 1047.14 278.952C1047.48 279.357 1047.94 279.56 1048.5 279.56C1049.07 279.56 1049.52 279.363 1049.85 278.968C1050.18 278.563 1050.34 277.976 1050.34 277.208ZM1065.89 277.704H1059.09V271.096H1060.9V273H1064.08V271.096H1065.89V272.184H1068.86V270.584H1070.77V277.944H1068.86V276.552H1065.89V277.704ZM1065.89 273.688V275.048H1068.86V273.688H1065.89ZM1064.08 274.504H1060.9V276.2H1064.08V274.504ZM1071.09 283.736V285.368H1062.74C1061.93 285.368 1061.52 284.963 1061.52 284.152V281.24H1068.83V280.312H1061.44V278.712H1070.77V282.824H1063.44V283.736H1071.09Z" fill="#171719"/>
<path d="M1036.01 300.024C1036.01 299.245 1036.08 298.499 1036.22 297.784C1036.37 297.069 1036.57 296.403 1036.82 295.784C1037.08 295.165 1037.38 294.605 1037.72 294.104C1038.07 293.603 1038.45 293.181 1038.86 292.84H1040.5C1040.07 293.245 1039.67 293.699 1039.32 294.2C1038.97 294.701 1038.67 295.235 1038.42 295.8C1038.18 296.365 1037.99 296.952 1037.85 297.56C1037.72 298.168 1037.66 298.776 1037.66 299.384V300.664C1037.66 301.272 1037.72 301.88 1037.85 302.488C1037.99 303.096 1038.18 303.683 1038.42 304.248C1038.67 304.813 1038.97 305.347 1039.32 305.848C1039.67 306.36 1040.07 306.813 1040.5 307.208H1038.86C1038.45 306.867 1038.07 306.445 1037.72 305.944C1037.38 305.443 1037.08 304.883 1036.82 304.264C1036.57 303.645 1036.37 302.979 1036.22 302.264C1036.08 301.549 1036.01 300.803 1036.01 300.024ZM1049.03 305H1041.45V303.272L1045.02 300.088C1045.58 299.576 1046.01 299.091 1046.31 298.632C1046.62 298.163 1046.78 297.672 1046.78 297.16V296.952C1046.78 296.408 1046.61 295.981 1046.28 295.672C1045.96 295.363 1045.52 295.208 1044.97 295.208C1044.66 295.208 1044.39 295.256 1044.15 295.352C1043.93 295.437 1043.73 295.56 1043.56 295.72C1043.39 295.88 1043.24 296.067 1043.13 296.28C1043.02 296.493 1042.94 296.723 1042.87 296.968L1041.29 296.36C1041.4 296.008 1041.56 295.672 1041.77 295.352C1041.97 295.021 1042.23 294.728 1042.54 294.472C1042.84 294.216 1043.21 294.013 1043.62 293.864C1044.05 293.715 1044.55 293.64 1045.11 293.64C1045.68 293.64 1046.18 293.725 1046.63 293.896C1047.08 294.056 1047.45 294.285 1047.75 294.584C1048.06 294.872 1048.3 295.219 1048.45 295.624C1048.62 296.029 1048.7 296.472 1048.7 296.952C1048.7 297.4 1048.63 297.816 1048.49 298.2C1048.35 298.584 1048.16 298.947 1047.91 299.288C1047.67 299.629 1047.38 299.955 1047.05 300.264C1046.73 300.573 1046.39 300.888 1046.02 301.208L1043.4 303.464H1049.03V305ZM1052.7 305L1056.75 295.32H1052.53V297.384H1050.98V293.832H1058.54V295.4L1054.61 305H1052.7ZM1062.46 305L1070.2 293.832H1071.82L1064.07 305H1062.46ZM1063.18 299.976C1062.31 299.976 1061.65 299.709 1061.19 299.176C1060.74 298.632 1060.51 297.843 1060.51 296.808C1060.51 295.773 1060.74 294.989 1061.19 294.456C1061.65 293.912 1062.31 293.64 1063.18 293.64C1064.04 293.64 1064.7 293.912 1065.16 294.456C1065.62 294.989 1065.85 295.773 1065.85 296.808C1065.85 297.843 1065.62 298.632 1065.16 299.176C1064.7 299.709 1064.04 299.976 1063.18 299.976ZM1063.18 298.904C1063.94 298.904 1064.31 298.355 1064.31 297.256V296.36C1064.31 295.261 1063.94 294.712 1063.18 294.712C1062.42 294.712 1062.04 295.261 1062.04 296.36V297.256C1062.04 298.355 1062.42 298.904 1063.18 298.904ZM1071.1 305.192C1070.23 305.192 1069.57 304.925 1069.11 304.392C1068.66 303.848 1068.43 303.059 1068.43 302.024C1068.43 300.989 1068.66 300.205 1069.11 299.672C1069.57 299.128 1070.23 298.856 1071.1 298.856C1071.96 298.856 1072.62 299.128 1073.08 299.672C1073.54 300.205 1073.77 300.989 1073.77 302.024C1073.77 303.059 1073.54 303.848 1073.08 304.392C1072.62 304.925 1071.96 305.192 1071.1 305.192ZM1071.1 304.12C1071.86 304.12 1072.23 303.571 1072.23 302.472V301.576C1072.23 300.477 1071.86 299.928 1071.1 299.928C1070.34 299.928 1069.96 300.477 1069.96 301.576V302.472C1069.96 303.571 1070.34 304.12 1071.1 304.12ZM1079.09 300.024C1079.09 300.803 1079.01 301.549 1078.86 302.264C1078.72 302.979 1078.53 303.645 1078.27 304.264C1078.01 304.883 1077.71 305.443 1077.36 305.944C1077.02 306.445 1076.64 306.867 1076.24 307.208H1074.59C1075.03 306.813 1075.42 306.36 1075.77 305.848C1076.13 305.347 1076.43 304.813 1076.67 304.248C1076.92 303.683 1077.1 303.096 1077.23 302.488C1077.37 301.88 1077.44 301.272 1077.44 300.664V299.384C1077.44 298.776 1077.37 298.168 1077.23 297.56C1077.1 296.952 1076.92 296.365 1076.67 295.8C1076.43 295.235 1076.13 294.701 1075.77 294.2C1075.42 293.699 1075.03 293.245 1074.59 292.84H1076.24C1076.64 293.181 1077.02 293.603 1077.36 294.104C1077.71 294.605 1078.01 295.165 1078.27 295.784C1078.53 296.403 1078.72 297.069 1078.86 297.784C1079.01 298.499 1079.09 299.245 1079.09 300.024Z" fill="#171719"/>
<path d="M1056.45 442.584V456.696H1054.53V442.584H1056.45ZM1049.97 448.424C1050.17 448.424 1050.33 448.509 1050.47 448.68L1053.21 452.184L1051.73 453.448L1048.95 449.688C1048.93 449.635 1048.88 449.608 1048.81 449.608C1048.74 449.608 1048.69 449.635 1048.66 449.688C1048.36 450.275 1047.99 450.877 1047.53 451.496C1047.08 452.104 1046.5 452.835 1045.78 453.688L1044.31 452.456C1045.15 451.528 1045.82 450.696 1046.31 449.96C1046.8 449.213 1047.16 448.467 1047.4 447.72C1047.63 446.973 1047.75 446.147 1047.75 445.24V443.512H1049.67V445.224C1049.67 446.525 1049.46 447.725 1049.03 448.824L1049.14 448.904L1049.48 448.616C1049.64 448.488 1049.8 448.424 1049.97 448.424ZM1068.85 447.784V442.584H1070.75V451.512H1068.85V449.336H1066.9V447.784H1068.85ZM1065.31 444.424H1060.94V442.872H1065.31V444.424ZM1062.9 451.368C1062.19 451.368 1061.58 451.261 1061.06 451.048C1060.53 450.835 1060.13 450.552 1059.86 450.2C1059.59 449.837 1059.46 449.437 1059.46 449C1059.46 448.147 1059.86 447.539 1060.67 447.176V447.048H1058.61V445.528H1067.15V447.048H1065.1V447.176C1065.91 447.539 1066.32 448.147 1066.32 449C1066.32 449.437 1066.18 449.837 1065.9 450.2C1065.64 450.552 1065.24 450.835 1064.72 451.048C1064.21 451.261 1063.6 451.368 1062.9 451.368ZM1062.75 449.816H1063.04C1063.49 449.816 1063.86 449.704 1064.14 449.48C1064.43 449.245 1064.58 448.931 1064.58 448.536C1064.58 448.141 1064.43 447.827 1064.14 447.592C1063.87 447.357 1063.5 447.24 1063.04 447.24H1062.75C1062.29 447.24 1061.92 447.357 1061.63 447.592C1061.34 447.827 1061.2 448.141 1061.2 448.536C1061.2 448.931 1061.34 449.245 1061.63 449.48C1061.92 449.704 1062.29 449.816 1062.75 449.816ZM1070.77 452.2V457.272H1062.78C1061.97 457.272 1061.57 456.867 1061.57 456.056V452.2H1070.77ZM1068.88 453.72H1063.44V455.768H1068.88V453.72Z" fill="#171719"/>
<path d="M1036.01 472.024C1036.01 471.245 1036.08 470.499 1036.22 469.784C1036.37 469.069 1036.57 468.403 1036.82 467.784C1037.08 467.165 1037.38 466.605 1037.72 466.104C1038.07 465.603 1038.45 465.181 1038.86 464.84H1040.5C1040.07 465.245 1039.67 465.699 1039.32 466.2C1038.97 466.701 1038.67 467.235 1038.42 467.8C1038.18 468.365 1037.99 468.952 1037.85 469.56C1037.72 470.168 1037.66 470.776 1037.66 471.384V472.664C1037.66 473.272 1037.72 473.88 1037.85 474.488C1037.99 475.096 1038.18 475.683 1038.42 476.248C1038.67 476.813 1038.97 477.347 1039.32 477.848C1039.67 478.36 1040.07 478.813 1040.5 479.208H1038.86C1038.45 478.867 1038.07 478.445 1037.72 477.944C1037.38 477.443 1037.08 476.883 1036.82 476.264C1036.57 475.645 1036.37 474.979 1036.22 474.264C1036.08 473.549 1036.01 472.803 1036.01 472.024ZM1041.78 477V475.496H1044.92V467.144H1044.79L1042.2 469.912L1041.1 468.92L1043.94 465.832H1046.7V475.496H1049.41V477H1041.78ZM1054.77 477.192C1054.12 477.192 1053.54 477.112 1053.04 476.952C1052.55 476.781 1052.13 476.552 1051.79 476.264C1051.46 475.976 1051.21 475.635 1051.02 475.24C1050.85 474.845 1050.77 474.419 1050.77 473.96C1050.77 473.213 1050.97 472.616 1051.38 472.168C1051.79 471.709 1052.34 471.389 1053.01 471.208V471.08C1052.43 470.877 1051.97 470.557 1051.62 470.12C1051.28 469.683 1051.1 469.144 1051.1 468.504C1051.1 468.077 1051.18 467.688 1051.34 467.336C1051.52 466.984 1051.76 466.685 1052.06 466.44C1052.37 466.184 1052.76 465.987 1053.22 465.848C1053.68 465.709 1054.19 465.64 1054.77 465.64C1055.34 465.64 1055.86 465.709 1056.32 465.848C1056.78 465.987 1057.16 466.184 1057.47 466.44C1057.78 466.685 1058.02 466.984 1058.18 467.336C1058.35 467.688 1058.43 468.077 1058.43 468.504C1058.43 469.144 1058.26 469.683 1057.9 470.12C1057.56 470.557 1057.1 470.877 1056.53 471.08V471.208C1057.2 471.389 1057.74 471.709 1058.14 472.168C1058.56 472.616 1058.77 473.213 1058.77 473.96C1058.77 474.419 1058.68 474.845 1058.5 475.24C1058.33 475.635 1058.07 475.976 1057.73 476.264C1057.4 476.552 1056.98 476.781 1056.48 476.952C1055.99 477.112 1055.42 477.192 1054.77 477.192ZM1054.77 475.736C1055.44 475.736 1055.96 475.581 1056.32 475.272C1056.69 474.963 1056.88 474.531 1056.88 473.976V473.656C1056.88 473.101 1056.69 472.669 1056.32 472.36C1055.96 472.051 1055.44 471.896 1054.77 471.896C1054.1 471.896 1053.57 472.051 1053.2 472.36C1052.84 472.669 1052.66 473.101 1052.66 473.656V473.976C1052.66 474.531 1052.84 474.963 1053.2 475.272C1053.57 475.581 1054.1 475.736 1054.77 475.736ZM1054.77 470.504C1055.39 470.504 1055.86 470.371 1056.18 470.104C1056.51 469.837 1056.67 469.448 1056.67 468.936V468.664C1056.67 468.152 1056.51 467.763 1056.18 467.496C1055.86 467.229 1055.39 467.096 1054.77 467.096C1054.15 467.096 1053.68 467.229 1053.34 467.496C1053.02 467.763 1052.86 468.152 1052.86 468.664V468.936C1052.86 469.448 1053.02 469.837 1053.34 470.104C1053.68 470.371 1054.15 470.504 1054.77 470.504ZM1062.46 477L1070.2 465.832H1071.82L1064.07 477H1062.46ZM1063.18 471.976C1062.31 471.976 1061.65 471.709 1061.19 471.176C1060.74 470.632 1060.51 469.843 1060.51 468.808C1060.51 467.773 1060.74 466.989 1061.19 466.456C1061.65 465.912 1062.31 465.64 1063.18 465.64C1064.04 465.64 1064.7 465.912 1065.16 466.456C1065.62 466.989 1065.85 467.773 1065.85 468.808C1065.85 469.843 1065.62 470.632 1065.16 471.176C1064.7 471.709 1064.04 471.976 1063.18 471.976ZM1063.18 470.904C1063.94 470.904 1064.31 470.355 1064.31 469.256V468.36C1064.31 467.261 1063.94 466.712 1063.18 466.712C1062.42 466.712 1062.04 467.261 1062.04 468.36V469.256C1062.04 470.355 1062.42 470.904 1063.18 470.904ZM1071.1 477.192C1070.23 477.192 1069.57 476.925 1069.11 476.392C1068.66 475.848 1068.43 475.059 1068.43 474.024C1068.43 472.989 1068.66 472.205 1069.11 471.672C1069.57 471.128 1070.23 470.856 1071.1 470.856C1071.96 470.856 1072.62 471.128 1073.08 471.672C1073.54 472.205 1073.77 472.989 1073.77 474.024C1073.77 475.059 1073.54 475.848 1073.08 476.392C1072.62 476.925 1071.96 477.192 1071.1 477.192ZM1071.1 476.12C1071.86 476.12 1072.23 475.571 1072.23 474.472V473.576C1072.23 472.477 1071.86 471.928 1071.1 471.928C1070.34 471.928 1069.96 472.477 1069.96 473.576V474.472C1069.96 475.571 1070.34 476.12 1071.1 476.12ZM1079.09 472.024C1079.09 472.803 1079.01 473.549 1078.86 474.264C1078.72 474.979 1078.53 475.645 1078.27 476.264C1078.01 476.883 1077.71 477.443 1077.36 477.944C1077.02 478.445 1076.64 478.867 1076.24 479.208H1074.59C1075.03 478.813 1075.42 478.36 1075.77 477.848C1076.13 477.347 1076.43 476.813 1076.67 476.248C1076.92 475.683 1077.1 475.096 1077.23 474.488C1077.37 473.88 1077.44 473.272 1077.44 472.664V471.384C1077.44 470.776 1077.37 470.168 1077.23 469.56C1077.1 468.952 1076.92 468.365 1076.67 467.8C1076.43 467.235 1076.13 466.701 1075.77 466.2C1075.42 465.699 1075.03 465.245 1074.59 464.84H1076.24C1076.64 465.181 1077.02 465.603 1077.36 466.104C1077.71 466.605 1078.01 467.165 1078.27 467.784C1078.53 468.403 1078.72 469.069 1078.86 469.784C1079.01 470.499 1079.09 471.245 1079.09 472.024Z" fill="#171719"/>
<path d="M899.237 476.584V487.176H897.317V476.584H899.237ZM887.381 481.048C887.381 480.269 887.541 479.597 887.861 479.032C888.191 478.467 888.645 478.035 889.221 477.736C889.797 477.437 890.458 477.288 891.205 477.288C891.951 477.288 892.613 477.437 893.189 477.736C893.765 478.035 894.213 478.467 894.533 479.032C894.863 479.597 895.029 480.269 895.029 481.048C895.029 481.816 894.863 482.483 894.533 483.048C894.213 483.613 893.765 484.051 893.189 484.36C892.613 484.659 891.951 484.808 891.205 484.808C890.458 484.808 889.797 484.659 889.221 484.36C888.645 484.051 888.191 483.613 887.861 483.048C887.541 482.483 887.381 481.816 887.381 481.048ZM892.997 481.464V480.632C892.997 480.077 892.831 479.64 892.501 479.32C892.181 479 891.749 478.84 891.205 478.84C890.661 478.84 890.223 479 889.893 479.32C889.562 479.64 889.397 480.077 889.397 480.632V481.464C889.397 482.019 889.557 482.456 889.877 482.776C890.207 483.085 890.65 483.24 891.205 483.24C891.749 483.24 892.181 483.085 892.501 482.776C892.831 482.456 892.997 482.019 892.997 481.464ZM890.005 489.784V486.024H891.925V489.432H899.509V491H891.221C890.41 491 890.005 490.595 890.005 489.784ZM914.862 480.6V482.2H912.718V487.176H910.814V476.584H912.718V480.6H914.862ZM902.398 485.544L901.374 484.088C902.718 483.576 903.753 483.096 904.478 482.648C905.204 482.2 905.71 481.736 905.998 481.256C906.286 480.776 906.43 480.211 906.43 479.56V479.144H901.854V477.528H908.366V479.368C908.366 480.371 908.185 481.213 907.822 481.896C907.46 482.579 906.852 483.203 905.998 483.768C905.156 484.333 903.956 484.925 902.398 485.544ZM905.582 489.432H913.054V491H904.878C904.068 491 903.662 490.595 903.662 489.784V486.024H905.582V489.432ZM929.112 481.096V482.696H927.176V487.416H925.288V476.584H927.176V481.096H929.112ZM921.768 479.064H916.216V477.496H923.64V478.456C923.64 479.811 923.485 481.261 923.176 482.808L921.352 482.568C921.597 481.48 921.736 480.312 921.768 479.064ZM924.536 485.032C923.384 485.203 921.976 485.341 920.312 485.448C918.659 485.544 916.984 485.592 915.288 485.592L915.128 484.008C915.8 484.008 916.797 483.997 918.12 483.976V481H919.976V483.912C921.651 483.848 923.112 483.731 924.36 483.56L924.536 485.032ZM919.8 489.432H927.464V491H919.112C918.301 491 917.896 490.595 917.896 489.784V486.6H919.8V489.432ZM942.322 476.584V490.696H940.53V476.584H942.322ZM937.586 476.792H939.314V490.328H937.586V485.336H935.618V483.816H937.586V481.656H935.826C935.73 482.499 935.511 483.245 935.17 483.896C934.828 484.547 934.343 485.176 933.714 485.784C933.084 486.381 932.242 487.048 931.186 487.784L929.97 486.6C931.09 485.853 931.938 485.187 932.514 484.6C933.1 484.013 933.511 483.395 933.746 482.744C933.991 482.093 934.114 481.288 934.114 480.328V479.448H930.402V478.008H935.906V480.152H937.586V476.792Z" fill="#171719"/>
<path d="M893.461 506.024C893.461 505.245 893.53 504.499 893.669 503.784C893.818 503.069 894.021 502.403 894.277 501.784C894.533 501.165 894.832 500.605 895.173 500.104C895.525 499.603 895.904 499.181 896.309 498.84H897.957C897.52 499.245 897.125 499.699 896.773 500.2C896.421 500.701 896.122 501.235 895.877 501.8C895.632 502.365 895.44 502.952 895.301 503.56C895.173 504.168 895.109 504.776 895.109 505.384V506.664C895.109 507.272 895.173 507.88 895.301 508.488C895.44 509.096 895.632 509.683 895.877 510.248C896.122 510.813 896.421 511.347 896.773 511.848C897.125 512.36 897.52 512.813 897.957 513.208H896.309C895.904 512.867 895.525 512.445 895.173 511.944C894.832 511.443 894.533 510.883 894.277 510.264C894.021 509.645 893.818 508.979 893.669 508.264C893.53 507.549 893.461 506.803 893.461 506.024ZM899.236 511V509.496H902.372V501.144H902.244L899.652 503.912L898.548 502.92L901.396 499.832H904.148V509.496H906.868V511H899.236ZM912.222 511.192C911.571 511.192 910.995 511.112 910.494 510.952C910.003 510.781 909.587 510.552 909.246 510.264C908.915 509.976 908.659 509.635 908.478 509.24C908.307 508.845 908.222 508.419 908.222 507.96C908.222 507.213 908.425 506.616 908.83 506.168C909.246 505.709 909.79 505.389 910.462 505.208V505.08C909.886 504.877 909.422 504.557 909.07 504.12C908.729 503.683 908.558 503.144 908.558 502.504C908.558 502.077 908.638 501.688 908.798 501.336C908.969 500.984 909.209 500.685 909.518 500.44C909.827 500.184 910.211 499.987 910.67 499.848C911.129 499.709 911.646 499.64 912.222 499.64C912.798 499.64 913.315 499.709 913.774 499.848C914.233 499.987 914.617 500.184 914.926 500.44C915.235 500.685 915.47 500.984 915.63 501.336C915.801 501.688 915.886 502.077 915.886 502.504C915.886 503.144 915.71 503.683 915.358 504.12C915.017 504.557 914.558 504.877 913.982 505.08V505.208C914.654 505.389 915.193 505.709 915.598 506.168C916.014 506.616 916.222 507.213 916.222 507.96C916.222 508.419 916.131 508.845 915.95 509.24C915.779 509.635 915.523 509.976 915.182 510.264C914.851 510.552 914.435 510.781 913.934 510.952C913.443 511.112 912.873 511.192 912.222 511.192ZM912.222 509.736C912.894 509.736 913.411 509.581 913.774 509.272C914.147 508.963 914.334 508.531 914.334 507.976V507.656C914.334 507.101 914.147 506.669 913.774 506.36C913.411 506.051 912.894 505.896 912.222 505.896C911.55 505.896 911.027 506.051 910.654 506.36C910.291 506.669 910.11 507.101 910.11 507.656V507.976C910.11 508.531 910.291 508.963 910.654 509.272C911.027 509.581 911.55 509.736 912.222 509.736ZM912.222 504.504C912.841 504.504 913.31 504.371 913.63 504.104C913.961 503.837 914.126 503.448 914.126 502.936V502.664C914.126 502.152 913.961 501.763 913.63 501.496C913.31 501.229 912.841 501.096 912.222 501.096C911.603 501.096 911.129 501.229 910.798 501.496C910.478 501.763 910.318 502.152 910.318 502.664V502.936C910.318 503.448 910.478 503.837 910.798 504.104C911.129 504.371 911.603 504.504 912.222 504.504ZM919.912 511L927.656 499.832H929.272L921.528 511H919.912ZM920.632 505.976C919.768 505.976 919.106 505.709 918.648 505.176C918.189 504.632 917.96 503.843 917.96 502.808C917.96 501.773 918.189 500.989 918.648 500.456C919.106 499.912 919.768 499.64 920.632 499.64C921.496 499.64 922.157 499.912 922.616 500.456C923.074 500.989 923.304 501.773 923.304 502.808C923.304 503.843 923.074 504.632 922.616 505.176C922.157 505.709 921.496 505.976 920.632 505.976ZM920.632 504.904C921.389 504.904 921.768 504.355 921.768 503.256V502.36C921.768 501.261 921.389 500.712 920.632 500.712C919.874 500.712 919.496 501.261 919.496 502.36V503.256C919.496 504.355 919.874 504.904 920.632 504.904ZM928.552 511.192C927.688 511.192 927.026 510.925 926.568 510.392C926.109 509.848 925.88 509.059 925.88 508.024C925.88 506.989 926.109 506.205 926.568 505.672C927.026 505.128 927.688 504.856 928.552 504.856C929.416 504.856 930.077 505.128 930.536 505.672C930.994 506.205 931.224 506.989 931.224 508.024C931.224 509.059 930.994 509.848 930.536 510.392C930.077 510.925 929.416 511.192 928.552 511.192ZM928.552 510.12C929.309 510.12 929.688 509.571 929.688 508.472V507.576C929.688 506.477 929.309 505.928 928.552 505.928C927.794 505.928 927.416 506.477 927.416 507.576V508.472C927.416 509.571 927.794 510.12 928.552 510.12ZM936.54 506.024C936.54 506.803 936.465 507.549 936.316 508.264C936.177 508.979 935.98 509.645 935.724 510.264C935.468 510.883 935.164 511.443 934.812 511.944C934.471 512.445 934.097 512.867 933.692 513.208H932.044C932.481 512.813 932.876 512.36 933.228 511.848C933.58 511.347 933.879 510.813 934.124 510.248C934.369 509.683 934.556 509.096 934.684 508.488C934.823 507.88 934.892 507.272 934.892 506.664V505.384C934.892 504.776 934.823 504.168 934.684 503.56C934.556 502.952 934.369 502.365 934.124 501.8C933.879 501.235 933.58 500.701 933.228 500.2C932.876 499.699 932.481 499.245 932.044 498.84H933.692C934.097 499.181 934.471 499.603 934.812 500.104C935.164 500.605 935.468 501.165 935.724 501.784C935.98 502.403 936.177 503.069 936.316 503.784C936.465 504.499 936.54 505.245 936.54 506.024Z" fill="#171719"/>
<path d="M832.846 376.4H830.67V383.712H828.766V369.584H830.67V374.816H832.846V376.4ZM819.854 370.704H826.414V373.072C826.414 374.288 826.228 375.323 825.854 376.176C825.492 377.019 824.889 377.803 824.046 378.528C823.214 379.243 822.036 380.016 820.51 380.848L819.374 379.392C820.75 378.688 821.796 378.043 822.51 377.456C823.236 376.859 823.742 376.224 824.03 375.552C824.329 374.88 824.478 374.053 824.478 373.072V372.304H819.854V370.704ZM843.864 372.896V369.584H845.768V377.984H843.864V374.448H841.368V372.896H843.864ZM835.032 377.824L833.608 376.624C834.792 375.771 835.645 374.987 836.168 374.272C836.701 373.557 836.973 372.789 836.984 371.968H834.12V370.384H841.704V371.968H838.888V371.984C838.888 372.88 838.685 373.701 838.28 374.448L838.376 374.496L838.776 374.224C838.936 374.096 839.101 374.032 839.272 374.032C839.453 374.032 839.635 374.096 839.816 374.224L842.328 376.32L840.904 377.552L838.264 375.232C838.147 375.157 838.051 375.12 837.976 375.12C837.891 375.12 837.816 375.152 837.752 375.216C837.453 375.621 837.085 376.027 836.648 376.432C836.211 376.837 835.672 377.301 835.032 377.824ZM845.784 381.344C845.784 381.952 845.603 382.491 845.24 382.96C844.877 383.429 844.344 383.797 843.64 384.064C842.947 384.331 842.109 384.464 841.128 384.464C840.147 384.464 839.304 384.331 838.6 384.064C837.896 383.797 837.363 383.429 837 382.96C836.637 382.491 836.456 381.952 836.456 381.344C836.456 380.725 836.637 380.181 837 379.712C837.363 379.243 837.896 378.875 838.6 378.608C839.304 378.341 840.147 378.208 841.128 378.208C842.109 378.208 842.952 378.341 843.656 378.608C844.36 378.875 844.888 379.243 845.24 379.712C845.603 380.181 845.784 380.725 845.784 381.344ZM843.8 381.216C843.8 380.779 843.581 380.416 843.144 380.128C842.707 379.84 842.035 379.696 841.128 379.696C840.221 379.696 839.544 379.84 839.096 380.128C838.659 380.416 838.44 380.779 838.44 381.216V381.472C838.44 381.899 838.659 382.256 839.096 382.544C839.544 382.832 840.221 382.976 841.128 382.976C842.024 382.976 842.691 382.832 843.128 382.544C843.576 382.256 843.8 381.899 843.8 381.472V381.216Z" fill="#171719"/>
<path d="M811.008 399.024C811.008 398.245 811.077 397.499 811.216 396.784C811.365 396.069 811.568 395.403 811.824 394.784C812.08 394.165 812.379 393.605 812.72 393.104C813.072 392.603 813.451 392.181 813.856 391.84H815.504C815.067 392.245 814.672 392.699 814.32 393.2C813.968 393.701 813.669 394.235 813.424 394.8C813.179 395.365 812.987 395.952 812.848 396.56C812.72 397.168 812.656 397.776 812.656 398.384V399.664C812.656 400.272 812.72 400.88 812.848 401.488C812.987 402.096 813.179 402.683 813.424 403.248C813.669 403.813 813.968 404.347 814.32 404.848C814.672 405.36 815.067 405.813 815.504 406.208H813.856C813.451 405.867 813.072 405.445 812.72 404.944C812.379 404.443 812.08 403.883 811.824 403.264C811.568 402.645 811.365 401.979 811.216 401.264C811.077 400.549 811.008 399.803 811.008 399.024ZM816.783 404V402.496H819.919V394.144H819.791L817.199 396.912L816.095 395.92L818.943 392.832H821.695V402.496H824.415V404H816.783ZM829.769 404.192C829.118 404.192 828.542 404.112 828.041 403.952C827.55 403.781 827.134 403.552 826.793 403.264C826.462 402.976 826.206 402.635 826.025 402.24C825.854 401.845 825.769 401.419 825.769 400.96C825.769 400.213 825.971 399.616 826.377 399.168C826.793 398.709 827.337 398.389 828.009 398.208V398.08C827.433 397.877 826.969 397.557 826.617 397.12C826.275 396.683 826.105 396.144 826.105 395.504C826.105 395.077 826.185 394.688 826.345 394.336C826.515 393.984 826.755 393.685 827.065 393.44C827.374 393.184 827.758 392.987 828.217 392.848C828.675 392.709 829.193 392.64 829.769 392.64C830.345 392.64 830.862 392.709 831.321 392.848C831.779 392.987 832.163 393.184 832.473 393.44C832.782 393.685 833.017 393.984 833.177 394.336C833.347 394.688 833.433 395.077 833.433 395.504C833.433 396.144 833.257 396.683 832.905 397.12C832.563 397.557 832.105 397.877 831.529 398.08V398.208C832.201 398.389 832.739 398.709 833.145 399.168C833.561 399.616 833.769 400.213 833.769 400.96C833.769 401.419 833.678 401.845 833.497 402.24C833.326 402.635 833.07 402.976 832.729 403.264C832.398 403.552 831.982 403.781 831.481 403.952C830.99 404.112 830.419 404.192 829.769 404.192ZM829.769 402.736C830.441 402.736 830.958 402.581 831.321 402.272C831.694 401.963 831.881 401.531 831.881 400.976V400.656C831.881 400.101 831.694 399.669 831.321 399.36C830.958 399.051 830.441 398.896 829.769 398.896C829.097 398.896 828.574 399.051 828.201 399.36C827.838 399.669 827.657 400.101 827.657 400.656V400.976C827.657 401.531 827.838 401.963 828.201 402.272C828.574 402.581 829.097 402.736 829.769 402.736ZM829.769 397.504C830.387 397.504 830.857 397.371 831.177 397.104C831.507 396.837 831.673 396.448 831.673 395.936V395.664C831.673 395.152 831.507 394.763 831.177 394.496C830.857 394.229 830.387 394.096 829.769 394.096C829.15 394.096 828.675 394.229 828.345 394.496C828.025 394.763 827.865 395.152 827.865 395.664V395.936C827.865 396.448 828.025 396.837 828.345 397.104C828.675 397.371 829.15 397.504 829.769 397.504ZM837.459 404L845.203 392.832H846.819L839.075 404H837.459ZM838.179 398.976C837.315 398.976 836.653 398.709 836.195 398.176C835.736 397.632 835.507 396.843 835.507 395.808C835.507 394.773 835.736 393.989 836.195 393.456C836.653 392.912 837.315 392.64 838.179 392.64C839.043 392.64 839.704 392.912 840.163 393.456C840.621 393.989 840.851 394.773 840.851 395.808C840.851 396.843 840.621 397.632 840.163 398.176C839.704 398.709 839.043 398.976 838.179 398.976ZM838.179 397.904C838.936 397.904 839.315 397.355 839.315 396.256V395.36C839.315 394.261 838.936 393.712 838.179 393.712C837.421 393.712 837.043 394.261 837.043 395.36V396.256C837.043 397.355 837.421 397.904 838.179 397.904ZM846.099 404.192C845.235 404.192 844.573 403.925 844.115 403.392C843.656 402.848 843.427 402.059 843.427 401.024C843.427 399.989 843.656 399.205 844.115 398.672C844.573 398.128 845.235 397.856 846.099 397.856C846.963 397.856 847.624 398.128 848.083 398.672C848.541 399.205 848.771 399.989 848.771 401.024C848.771 402.059 848.541 402.848 848.083 403.392C847.624 403.925 846.963 404.192 846.099 404.192ZM846.099 403.12C846.856 403.12 847.235 402.571 847.235 401.472V400.576C847.235 399.477 846.856 398.928 846.099 398.928C845.341 398.928 844.963 399.477 844.963 400.576V401.472C844.963 402.571 845.341 403.12 846.099 403.12ZM854.087 399.024C854.087 399.803 854.012 400.549 853.863 401.264C853.724 401.979 853.527 402.645 853.271 403.264C853.015 403.883 852.711 404.443 852.359 404.944C852.017 405.445 851.644 405.867 851.239 406.208H849.591C850.028 405.813 850.423 405.36 850.775 404.848C851.127 404.347 851.425 403.813 851.671 403.248C851.916 402.683 852.103 402.096 852.231 401.488C852.369 400.88 852.439 400.272 852.439 399.664V398.384C852.439 397.776 852.369 397.168 852.231 396.56C852.103 395.952 851.916 395.365 851.671 394.8C851.425 394.235 851.127 393.701 850.775 393.2C850.423 392.699 850.028 392.245 849.591 391.84H851.239C851.644 392.181 852.017 392.603 852.359 393.104C852.711 393.605 853.015 394.165 853.271 394.784C853.527 395.403 853.724 396.069 853.863 396.784C854.012 397.499 854.087 398.245 854.087 399.024Z" fill="#171719"/>
<path d="M861.47 270.584V284.696H859.582V270.584H861.47ZM856.254 272.184H851.934V270.744H856.254V272.184ZM853.15 274.424H850.222V272.984H857.87V274.424H854.974C854.921 275.011 854.718 275.528 854.366 275.976L854.446 276.024L854.894 275.72C855.076 275.592 855.257 275.528 855.438 275.528C855.588 275.528 855.758 275.571 855.95 275.656L858.318 276.856L856.99 278.056L854.366 276.584C854.27 276.52 854.164 276.488 854.046 276.488C853.94 276.488 853.833 276.525 853.726 276.6C853.14 277.112 852.228 277.661 850.99 278.248L849.678 277.064C850.798 276.605 851.625 276.168 852.158 275.752C852.702 275.336 853.033 274.893 853.15 274.424ZM858.862 279.88C857.806 280.04 856.516 280.168 854.99 280.264V284.568H853.086V280.36C851.753 280.413 850.537 280.44 849.438 280.44L849.278 278.856C851.145 278.856 852.91 278.819 854.574 278.744C856.238 278.669 857.614 278.557 858.702 278.408L858.862 279.88ZM873.8 270.584H875.72V284.696H873.8V270.584ZM864.232 271.688H871.256V280.824H864.232V271.688ZM869.368 279.272V273.24H866.12V279.272H869.368Z" fill="#171719"/>
<path d="M846.258 300.024C846.258 299.245 846.327 298.499 846.466 297.784C846.615 297.069 846.818 296.403 847.074 295.784C847.33 295.165 847.629 294.605 847.97 294.104C848.322 293.603 848.701 293.181 849.106 292.84H850.754C850.317 293.245 849.922 293.699 849.57 294.2C849.218 294.701 848.919 295.235 848.674 295.8C848.429 296.365 848.237 296.952 848.098 297.56C847.97 298.168 847.906 298.776 847.906 299.384V300.664C847.906 301.272 847.97 301.88 848.098 302.488C848.237 303.096 848.429 303.683 848.674 304.248C848.919 304.813 849.218 305.347 849.57 305.848C849.922 306.36 850.317 306.813 850.754 307.208H849.106C848.701 306.867 848.322 306.445 847.97 305.944C847.629 305.443 847.33 304.883 847.074 304.264C846.818 303.645 846.615 302.979 846.466 302.264C846.327 301.549 846.258 300.803 846.258 300.024ZM859.329 297.992C859.329 298.803 859.206 299.565 858.961 300.28C858.716 300.995 858.401 301.651 858.017 302.248C857.633 302.845 857.201 303.379 856.721 303.848C856.252 304.317 855.788 304.701 855.329 305H852.929C853.558 304.541 854.124 304.099 854.625 303.672C855.126 303.245 855.564 302.808 855.937 302.36C856.31 301.912 856.62 301.437 856.865 300.936C857.121 300.435 857.318 299.885 857.457 299.288L857.345 299.256C857.228 299.48 857.089 299.693 856.929 299.896C856.78 300.088 856.598 300.259 856.385 300.408C856.182 300.557 855.948 300.675 855.681 300.76C855.414 300.845 855.105 300.888 854.753 300.888C854.284 300.888 853.846 300.808 853.441 300.648C853.046 300.488 852.7 300.259 852.401 299.96C852.113 299.651 851.884 299.288 851.713 298.872C851.553 298.445 851.473 297.965 851.473 297.432C851.473 296.877 851.564 296.365 851.745 295.896C851.937 295.427 852.204 295.027 852.545 294.696C852.886 294.365 853.297 294.109 853.777 293.928C854.257 293.736 854.796 293.64 855.393 293.64C856.012 293.64 856.561 293.741 857.041 293.944C857.532 294.147 857.942 294.44 858.273 294.824C858.614 295.197 858.876 295.651 859.057 296.184C859.238 296.717 859.329 297.32 859.329 297.992ZM855.393 299.432C856.044 299.432 856.55 299.261 856.913 298.92C857.276 298.568 857.457 298.056 857.457 297.384V297.16C857.457 296.488 857.276 295.981 856.913 295.64C856.55 295.288 856.044 295.112 855.393 295.112C854.742 295.112 854.236 295.288 853.873 295.64C853.51 295.981 853.329 296.488 853.329 297.16V297.384C853.329 298.056 853.51 298.568 853.873 298.92C854.236 299.261 854.742 299.432 855.393 299.432ZM863.115 305L870.859 293.832H872.475L864.731 305H863.115ZM863.835 299.976C862.971 299.976 862.309 299.709 861.851 299.176C861.392 298.632 861.163 297.843 861.163 296.808C861.163 295.773 861.392 294.989 861.851 294.456C862.309 293.912 862.971 293.64 863.835 293.64C864.699 293.64 865.36 293.912 865.819 294.456C866.277 294.989 866.507 295.773 866.507 296.808C866.507 297.843 866.277 298.632 865.819 299.176C865.36 299.709 864.699 299.976 863.835 299.976ZM863.835 298.904C864.592 298.904 864.971 298.355 864.971 297.256V296.36C864.971 295.261 864.592 294.712 863.835 294.712C863.077 294.712 862.699 295.261 862.699 296.36V297.256C862.699 298.355 863.077 298.904 863.835 298.904ZM871.755 305.192C870.891 305.192 870.229 304.925 869.771 304.392C869.312 303.848 869.083 303.059 869.083 302.024C869.083 300.989 869.312 300.205 869.771 299.672C870.229 299.128 870.891 298.856 871.755 298.856C872.619 298.856 873.28 299.128 873.739 299.672C874.197 300.205 874.427 300.989 874.427 302.024C874.427 303.059 874.197 303.848 873.739 304.392C873.28 304.925 872.619 305.192 871.755 305.192ZM871.755 304.12C872.512 304.12 872.891 303.571 872.891 302.472V301.576C872.891 300.477 872.512 299.928 871.755 299.928C870.997 299.928 870.619 300.477 870.619 301.576V302.472C870.619 303.571 870.997 304.12 871.755 304.12ZM879.743 300.024C879.743 300.803 879.668 301.549 879.519 302.264C879.38 302.979 879.183 303.645 878.927 304.264C878.671 304.883 878.367 305.443 878.015 305.944C877.674 306.445 877.3 306.867 876.895 307.208H875.247C875.684 306.813 876.079 306.36 876.431 305.848C876.783 305.347 877.082 304.813 877.327 304.248C877.572 303.683 877.759 303.096 877.887 302.488C878.026 301.88 878.095 301.272 878.095 300.664V299.384C878.095 298.776 878.026 298.168 877.887 297.56C877.759 296.952 877.572 296.365 877.327 295.8C877.082 295.235 876.783 294.701 876.431 294.2C876.079 293.699 875.684 293.245 875.247 292.84H876.895C877.3 293.181 877.674 293.603 878.015 294.104C878.367 294.605 878.671 295.165 878.927 295.784C879.183 296.403 879.38 297.069 879.519 297.784C879.668 298.499 879.743 299.245 879.743 300.024Z" fill="#171719"/>
<path d="M914.581 241.4H912.405V248.712H910.501V234.584H912.405V239.816H914.581V241.4ZM906.357 240.76C906.559 240.76 906.741 240.84 906.901 241L909.573 244.104L908.149 245.32L905.397 241.96C905.333 241.896 905.258 241.864 905.173 241.864C905.098 241.864 905.045 241.896 905.013 241.96C904.703 242.493 904.325 243.043 903.877 243.608C903.429 244.163 902.863 244.808 902.181 245.544L900.757 244.376C901.994 243.16 902.874 242.056 903.397 241.064C903.93 240.061 904.197 238.968 904.197 237.784V237.4H901.301V235.816H908.933V237.4H906.069V237.848C906.069 239.053 905.85 240.157 905.413 241.16L905.493 241.208L905.877 240.936C906.026 240.819 906.186 240.76 906.357 240.76ZM925.534 234.584H927.454V248.696H925.534V234.584ZM915.71 244.376C917.108 243.672 918.169 243.027 918.894 242.44C919.63 241.853 920.148 241.224 920.446 240.552C920.745 239.88 920.894 239.053 920.894 238.072V237.304H916.19V235.704H922.83V238.072C922.83 239.288 922.644 240.323 922.27 241.176C921.897 242.019 921.284 242.803 920.43 243.528C919.577 244.243 918.377 245.016 916.83 245.848L915.71 244.376ZM942.056 234.584V248.696H940.264V234.584H942.056ZM937.32 234.792H939.048V248.328H937.32V243.336H935.352V241.816H937.32V239.656H935.56C935.464 240.499 935.245 241.245 934.904 241.896C934.563 242.547 934.077 243.176 933.448 243.784C932.819 244.381 931.976 245.048 930.92 245.784L929.704 244.6C930.824 243.853 931.672 243.187 932.248 242.6C932.835 242.013 933.245 241.395 933.48 240.744C933.725 240.093 933.848 239.288 933.848 238.328V237.448H930.136V236.008H935.64V238.152H937.32V234.792ZM957.394 237.576V239.176H955.25V241.944H953.346V234.584H955.25V237.576H957.394ZM950.978 241.704H944.146V235.096H945.986V237H949.138V235.096H950.978V241.704ZM949.138 238.504H945.986V240.2H949.138V238.504ZM947.986 247.864H955.57V249.368H947.314C946.503 249.368 946.098 248.963 946.098 248.152V245.336H953.362V244.184H946.018V242.712H955.25V246.728H947.986V247.864Z" fill="#171719"/>
<path d="M912.258 264.024C912.258 263.245 912.327 262.499 912.466 261.784C912.615 261.069 912.818 260.403 913.074 259.784C913.33 259.165 913.629 258.605 913.97 258.104C914.322 257.603 914.701 257.181 915.106 256.84H916.754C916.317 257.245 915.922 257.699 915.57 258.2C915.218 258.701 914.919 259.235 914.674 259.8C914.429 260.365 914.237 260.952 914.098 261.56C913.97 262.168 913.906 262.776 913.906 263.384V264.664C913.906 265.272 913.97 265.88 914.098 266.488C914.237 267.096 914.429 267.683 914.674 268.248C914.919 268.813 915.218 269.347 915.57 269.848C915.922 270.36 916.317 270.813 916.754 271.208H915.106C914.701 270.867 914.322 270.445 913.97 269.944C913.629 269.443 913.33 268.883 913.074 268.264C912.818 267.645 912.615 266.979 912.466 266.264C912.327 265.549 912.258 264.803 912.258 264.024ZM925.329 261.992C925.329 262.803 925.206 263.565 924.961 264.28C924.716 264.995 924.401 265.651 924.017 266.248C923.633 266.845 923.201 267.379 922.721 267.848C922.252 268.317 921.788 268.701 921.329 269H918.929C919.558 268.541 920.124 268.099 920.625 267.672C921.126 267.245 921.564 266.808 921.937 266.36C922.31 265.912 922.62 265.437 922.865 264.936C923.121 264.435 923.318 263.885 923.457 263.288L923.345 263.256C923.228 263.48 923.089 263.693 922.929 263.896C922.78 264.088 922.598 264.259 922.385 264.408C922.182 264.557 921.948 264.675 921.681 264.76C921.414 264.845 921.105 264.888 920.753 264.888C920.284 264.888 919.846 264.808 919.441 264.648C919.046 264.488 918.7 264.259 918.401 263.96C918.113 263.651 917.884 263.288 917.713 262.872C917.553 262.445 917.473 261.965 917.473 261.432C917.473 260.877 917.564 260.365 917.745 259.896C917.937 259.427 918.204 259.027 918.545 258.696C918.886 258.365 919.297 258.109 919.777 257.928C920.257 257.736 920.796 257.64 921.393 257.64C922.012 257.64 922.561 257.741 923.041 257.944C923.532 258.147 923.942 258.44 924.273 258.824C924.614 259.197 924.876 259.651 925.057 260.184C925.238 260.717 925.329 261.32 925.329 261.992ZM921.393 263.432C922.044 263.432 922.55 263.261 922.913 262.92C923.276 262.568 923.457 262.056 923.457 261.384V261.16C923.457 260.488 923.276 259.981 922.913 259.64C922.55 259.288 922.044 259.112 921.393 259.112C920.742 259.112 920.236 259.288 919.873 259.64C919.51 259.981 919.329 260.488 919.329 261.16V261.384C919.329 262.056 919.51 262.568 919.873 262.92C920.236 263.261 920.742 263.432 921.393 263.432ZM929.115 269L936.859 257.832H938.475L930.731 269H929.115ZM929.835 263.976C928.971 263.976 928.309 263.709 927.851 263.176C927.392 262.632 927.163 261.843 927.163 260.808C927.163 259.773 927.392 258.989 927.851 258.456C928.309 257.912 928.971 257.64 929.835 257.64C930.699 257.64 931.36 257.912 931.819 258.456C932.277 258.989 932.507 259.773 932.507 260.808C932.507 261.843 932.277 262.632 931.819 263.176C931.36 263.709 930.699 263.976 929.835 263.976ZM929.835 262.904C930.592 262.904 930.971 262.355 930.971 261.256V260.36C930.971 259.261 930.592 258.712 929.835 258.712C929.077 258.712 928.699 259.261 928.699 260.36V261.256C928.699 262.355 929.077 262.904 929.835 262.904ZM937.755 269.192C936.891 269.192 936.229 268.925 935.771 268.392C935.312 267.848 935.083 267.059 935.083 266.024C935.083 264.989 935.312 264.205 935.771 263.672C936.229 263.128 936.891 262.856 937.755 262.856C938.619 262.856 939.28 263.128 939.739 263.672C940.197 264.205 940.427 264.989 940.427 266.024C940.427 267.059 940.197 267.848 939.739 268.392C939.28 268.925 938.619 269.192 937.755 269.192ZM937.755 268.12C938.512 268.12 938.891 267.571 938.891 266.472V265.576C938.891 264.477 938.512 263.928 937.755 263.928C936.997 263.928 936.619 264.477 936.619 265.576V266.472C936.619 267.571 936.997 268.12 937.755 268.12ZM945.743 264.024C945.743 264.803 945.668 265.549 945.519 266.264C945.38 266.979 945.183 267.645 944.927 268.264C944.671 268.883 944.367 269.443 944.015 269.944C943.674 270.445 943.3 270.867 942.895 271.208H941.247C941.684 270.813 942.079 270.36 942.431 269.848C942.783 269.347 943.082 268.813 943.327 268.248C943.572 267.683 943.759 267.096 943.887 266.488C944.026 265.88 944.095 265.272 944.095 264.664V263.384C944.095 262.776 944.026 262.168 943.887 261.56C943.759 260.952 943.572 260.365 943.327 259.8C943.082 259.235 942.783 258.701 942.431 258.2C942.079 257.699 941.684 257.245 941.247 256.84H942.895C943.3 257.181 943.674 257.603 944.015 258.104C944.367 258.605 944.671 259.165 944.927 259.784C945.183 260.403 945.38 261.069 945.519 261.784C945.668 262.499 945.743 263.245 945.743 264.024Z" fill="#171719"/>
<defs>
<filter id="filter0_dd_1393_7843" x="777.682" y="195.356" width="369.66" height="369.662" filterUnits="userSpaceOnUse" color-interpolation-filters="sRGB">
<feFlood flood-opacity="0" result="BackgroundImageFix"/>
<feColorMatrix in="SourceAlpha" type="matrix" values="0 0 0 0 0 0 0 0 0 0 0 0 0 0 0 0 0 0 127 0" result="hardAlpha"/>
<feOffset dy="4"/>
<feGaussianBlur stdDeviation="4"/>
<feComposite in2="hardAlpha" operator="out"/>
<feColorMatrix type="matrix" values="0 0 0 0 0 0 0 0 0 0 0 0 0 0 0 0 0 0 0.08 0"/>
<feBlend mode="normal" in2="BackgroundImageFix" result="effect1_dropShadow_1393_7843"/>
<feColorMatrix in="SourceAlpha" type="matrix" values="0 0 0 0 0 0 0 0 0 0 0 0 0 0 0 0 0 0 127 0" result="hardAlpha"/>
<feOffset/>
<feGaussianBlur stdDeviation="1"/>
<feComposite in2="hardAlpha" operator="out"/>
<feColorMatrix type="matrix" values="0 0 0 0 0 0 0 0 0 0 0 0 0 0 0 0 0 0 0.05 0"/>
<feBlend mode="normal" in2="effect1_dropShadow_1393_7843" result="effect2_dropShadow_1393_7843"/>
<feBlend mode="normal" in="SourceGraphic" in2="effect2_dropShadow_1393_7843" result="shape"/>
</filter>
</defs>
</svg>
